<svg width="1400" height="981" viewBox="0 0 1400 981" fill="none" xmlns="http://www.w3.org/2000/svg">
<g clip-path="url(#clip0)">
<path d="M1399.79 -1.29321H-0.291016V751.131H1399.79V-1.29321Z" fill="#EBD1C6"/>
<path opacity="0.6" d="M1331 274.5C1323.66 267.284 1313.58 262.779 1302.46 262.779C1299.87 262.779 1297.37 263.029 1294.91 263.488C1286.83 251.309 1273 243.258 1257.29 243.258C1253.45 243.258 1249.75 243.717 1246.25 244.635C1234.08 219.108 1208.04 201.422 1177.87 201.422C1150.95 201.422 1127.32 215.479 1113.91 236.668C1106.45 233.123 1098.12 231.12 1089.32 231.12C1069.78 231.12 1052.53 240.923 1042.2 255.855C1034.99 252.81 1027.07 251.142 1018.78 251.142C998.988 251.142 981.487 260.735 970.529 275.417C964.07 272.081 956.737 270.204 948.986 270.204C944.945 270.204 941.028 270.704 937.278 271.663C932.527 264.99 925.986 259.692 918.402 256.356C908.318 217.231 872.817 188.283 830.608 188.283C803.649 188.283 779.481 200.046 762.897 218.691C752.439 214.186 740.938 211.767 728.855 211.767L728.688 214.728V211.767C694.354 211.767 665.145 233.123 653.394 263.238C645.394 255.396 634.435 250.474 622.31 250.474C619.477 250.474 616.768 250.725 614.101 251.225C605.309 237.961 590.267 229.202 573.142 229.202C568.975 229.202 564.933 229.702 561.1 230.703C547.849 202.882 519.474 183.653 486.681 183.653C457.388 183.653 431.638 198.961 417.054 222.027C408.97 218.148 399.845 215.979 390.303 215.979C369.011 215.979 350.26 226.657 338.968 242.925C331.135 239.588 322.509 237.794 313.467 237.794C291.925 237.794 272.841 248.222 260.924 264.239C253.882 260.61 245.924 258.566 237.465 258.566C233.09 258.566 228.798 259.108 224.715 260.193C219.548 252.935 212.423 247.137 204.173 243.509C193.214 200.88 154.546 169.43 108.545 169.43C79.2104 169.43 52.8763 182.235 34.8341 202.507C23.4588 197.627 12.9168 198.502 -0.250244 198.502V558.301H1400.17V227.116C1368.62 227.241 1341.75 246.845 1331 274.5Z" fill="url(#paint0_linear)"/>
<path opacity="0.8" d="M1400.5 538.989L1399.88 279.171C1363.04 279.171 1341.79 309.078 1341.79 345.951C1341.79 346.243 1341.79 346.493 1341.79 346.785C1335.79 343.239 1328.87 341.196 1321.41 341.196C1316.04 341.196 1310.91 342.238 1306.25 344.199C1298.25 332.812 1285.08 325.429 1270.12 325.429C1264 325.429 1258.2 326.638 1252.87 328.891C1245.25 317.879 1232.58 310.663 1218.2 310.663C1211.7 310.663 1205.58 312.123 1200.12 314.751C1190.24 299.151 1172.87 288.807 1153.08 288.807C1122.33 288.807 1097.41 313.75 1097.41 344.532C1097.41 345.075 1097.41 345.659 1097.45 346.201C1089.91 340.278 1080.37 336.774 1070.03 336.774C1059.36 336.774 1049.53 340.57 1041.86 346.868C1035.2 324.261 1014.32 307.785 989.613 307.785V307.869C980.696 307.869 972.279 309.704 964.612 312.999C952.404 299.276 934.611 290.642 914.819 290.642C877.985 290.642 848.109 320.549 848.109 357.421C848.109 357.713 848.109 357.963 848.109 358.255C842.109 354.71 835.192 352.666 827.733 352.666C822.358 352.666 817.233 353.709 812.566 355.669C804.566 344.282 791.399 336.899 776.44 336.899C770.315 336.899 764.523 338.109 759.189 340.361C751.564 329.35 738.897 322.134 724.522 322.134C718.022 322.134 711.896 323.594 706.438 326.221C696.563 310.621 679.187 300.277 659.395 300.277C628.644 300.277 603.727 325.22 603.727 356.003C603.727 356.545 603.726 357.129 603.768 357.671C596.226 351.748 586.684 348.245 576.351 348.245C565.684 348.245 555.85 352.04 548.183 358.339C541.516 335.731 520.641 319.214 495.932 319.214V319.339C464.806 319.339 464.431 337.734 456.764 341.029C444.555 327.306 426.763 318.672 406.971 318.672C370.136 318.672 354.427 332.019 354.427 368.892C354.427 369.184 340.26 385.993 340.26 386.243C334.26 382.698 341.51 364.095 334.052 364.095C328.677 364.095 323.551 365.138 318.885 367.098C310.884 355.711 297.717 348.328 282.759 348.328C276.633 348.328 270.842 349.538 265.508 351.79C257.883 340.778 245.216 333.562 230.84 333.562C224.34 333.562 218.215 335.022 212.757 337.65C202.881 322.05 185.506 311.706 165.713 311.706C134.963 311.706 110.045 336.649 110.045 367.432C110.045 367.974 110.045 368.558 110.087 369.1C102.545 363.177 93.0029 359.674 82.6693 359.674C72.0023 359.674 62.1687 363.469 54.5018 369.768C47.8349 347.16 26.9593 330.643 2.25024 330.643V538.947H1400.5V538.989Z" fill="url(#paint1_linear)"/>
<path d="M490.295 212.199C501.473 154.882 464.117 99.3475 406.86 88.1587C349.602 76.9698 294.125 114.364 282.947 171.681C271.77 228.997 309.125 284.532 366.383 295.721C423.641 306.91 479.118 269.516 490.295 212.199Z" fill="white"/>
<path opacity="0.6" d="M339.261 158.835C339.261 167.094 332.553 173.809 324.302 173.809C316.052 173.809 309.344 167.094 309.344 158.835C309.344 150.576 316.052 143.861 324.302 143.861C332.553 143.861 339.261 150.535 339.261 158.835Z" fill="#DBDBDB"/>
<path opacity="0.6" d="M330.677 192.037C330.677 197.918 325.927 202.673 320.052 202.673C314.177 202.673 309.427 197.918 309.427 192.037C309.427 186.156 314.177 181.401 320.052 181.401C325.927 181.442 330.677 186.197 330.677 192.037Z" fill="#DBDBDB"/>
<path opacity="0.3" d="M387.138 342.447C469.661 342.447 536.559 275.479 536.559 192.871C536.559 110.263 469.661 43.2957 387.138 43.2957C304.615 43.2957 237.717 110.263 237.717 192.871C237.717 275.479 304.615 342.447 387.138 342.447Z" fill="white"/>
<path d="M461.473 458.07L383.179 398.256L430.847 354.835L383.471 262.529L9.16772 589.501V752.716H116.463L461.473 458.07Z" fill="#D3B5BB"/>
<path d="M383.305 262.654L383.18 262.529L383.221 262.695L383.305 262.654Z" fill="#C3A8BA"/>
<path d="M573.185 428.33L383.679 262.987L430.847 354.835L383.179 398.256L461.473 458.07L116.463 752.716H82.7121L80.7537 755.01L194.799 752.424L889.944 157.083L573.185 428.33Z" fill="#C3A8BA"/>
<path d="M1002.32 361.383L891.694 330.017L949.029 276.502L890.319 157.083L195.548 752.549V752.716H1183.58H1260.91L1002.32 361.383Z" fill="#D3B5BB"/>
<path d="M890.152 157.25L889.943 157.083L890.027 157.334L890.152 157.25Z" fill="#C3A8BA"/>
<path d="M890.61 157.625L949.028 276.502L891.693 330.017L1002.32 361.383L1260.91 752.716H1399.87V592.921L890.61 157.625Z" fill="#C3A8BA"/>
<path d="M727.773 516.09L664.354 602.014C657.77 610.94 646.562 611.191 639.478 602.598L516.058 448.184L335.928 626.582C329.177 635.425 317.927 635.55 310.927 626.874L281.634 546.372C276.426 539.615 277.592 540.574 271.967 546.288L226.258 594.173C218.382 602.223 207.09 601.18 201.173 591.878L74.2947 422.198L-0.20752 520.845V809.276H930.987L727.773 516.09Z" fill="#736C9D"/>
<path d="M476.723 748.795C478.307 743.748 483.015 740.078 488.557 740.078C488.848 740.078 489.098 740.119 489.39 740.119C488.848 738.409 488.557 736.616 488.557 734.739C488.557 725.103 496.224 717.262 505.766 717.011C509.641 711.047 516.349 707.084 523.974 707.084C535.933 707.084 545.642 716.803 545.642 728.774C545.642 729.108 545.642 729.483 545.6 729.817C552.1 731.318 557.267 736.365 558.85 742.872C560.017 742.497 561.309 742.288 562.601 742.288C564.642 742.288 566.601 742.789 568.309 743.665C570.476 744.791 572.309 746.585 573.476 748.712H476.723V748.795Z" fill="#3C8C35"/>
<path d="M1400.04 811.487H0.542969V981.042H1400.04V811.487Z" fill="url(#paint2_linear)"/>
<path d="M427.389 850.194C427.389 850.194 428.972 850.153 431.764 850.069C434.556 850.027 438.514 849.902 443.306 849.861C448.098 849.819 453.64 849.735 459.598 849.652C465.557 849.61 471.932 849.61 478.307 849.569C481.474 849.569 484.682 849.569 487.807 849.61C490.932 849.61 494.016 849.652 497.016 849.652C502.974 849.694 508.558 849.777 513.308 849.861C518.1 849.902 522.058 850.027 524.85 850.069C527.642 850.153 529.225 850.194 529.225 850.194C529.225 850.194 527.642 850.236 524.85 850.319C522.058 850.361 518.1 850.486 513.308 850.528C508.516 850.57 502.974 850.695 497.016 850.737C494.016 850.737 490.932 850.778 487.807 850.778C484.682 850.778 481.474 850.778 478.307 850.82C471.932 850.82 465.598 850.778 459.598 850.737C453.64 850.653 448.056 850.611 443.306 850.528C438.514 850.486 434.556 850.361 431.764 850.319C428.972 850.236 427.389 850.194 427.389 850.194Z" fill="white"/>
<path d="M510.767 861.039C510.767 861.039 514.059 860.997 519.851 860.913C525.643 860.872 533.893 860.788 543.768 860.705C553.685 860.663 565.227 860.58 577.603 860.496C589.978 860.455 603.187 860.455 616.354 860.413C629.563 860.455 642.73 860.455 655.105 860.496C667.48 860.58 679.022 860.621 688.939 860.705C698.856 860.788 707.107 860.872 712.857 860.913C718.649 860.997 721.94 861.039 721.94 861.039C721.94 861.039 718.649 861.08 712.857 861.164C707.065 861.205 698.815 861.289 688.939 861.372C679.022 861.414 667.48 861.497 655.105 861.581C642.73 861.623 629.521 861.623 616.354 861.664C603.145 861.623 589.978 861.623 577.603 861.581C565.227 861.497 553.685 861.456 543.768 861.372C533.851 861.289 525.601 861.205 519.851 861.164C514.059 861.08 510.767 861.039 510.767 861.039Z" fill="white"/>
<path d="M500.141 839.725C500.141 839.725 500.974 839.683 502.433 839.6C503.891 839.558 505.975 839.433 508.433 839.349C510.933 839.266 513.85 839.182 516.933 839.141C520.058 839.099 523.35 839.099 526.684 839.057C528.35 839.057 530.017 839.057 531.642 839.099C533.267 839.099 534.892 839.141 536.434 839.141C539.559 839.182 542.434 839.266 544.934 839.349C547.434 839.433 549.518 839.516 550.934 839.6C552.393 839.683 553.226 839.725 553.226 839.725C553.226 839.725 552.393 839.766 550.934 839.85C549.476 839.892 547.392 840.017 544.934 840.1C542.434 840.183 539.517 840.267 536.434 840.309C534.892 840.309 533.267 840.35 531.642 840.35C530.017 840.35 528.35 840.35 526.684 840.392C523.35 840.392 520.058 840.35 516.933 840.309C513.808 840.267 510.933 840.183 508.433 840.1C505.933 840.017 503.85 839.933 502.433 839.85C500.974 839.766 500.141 839.725 500.141 839.725Z" fill="white"/>
<path d="M377.597 859.955C377.597 859.955 378.139 859.913 379.055 859.83C379.972 859.788 381.305 859.663 382.847 859.58C384.43 859.496 386.264 859.413 388.222 859.371C390.181 859.329 392.306 859.329 394.389 859.288C395.431 859.288 396.472 859.288 397.514 859.329C398.556 859.329 399.556 859.371 400.556 859.371C402.514 859.413 404.348 859.496 405.931 859.58C407.514 859.663 408.806 859.746 409.723 859.83C410.64 859.913 411.181 859.955 411.181 859.955C411.181 859.955 410.64 859.997 409.723 860.08C408.806 860.122 407.473 860.247 405.931 860.33C404.348 860.414 402.514 860.497 400.556 860.539C399.556 860.539 398.556 860.581 397.514 860.581C396.472 860.581 395.431 860.581 394.389 860.622C392.306 860.622 390.181 860.581 388.222 860.539C386.264 860.497 384.43 860.414 382.847 860.33C381.264 860.247 379.972 860.164 379.055 860.08C378.139 859.997 377.597 859.955 377.597 859.955Z" fill="white"/>
<path d="M246.592 857.786C246.592 857.786 247.883 857.744 250.133 857.661C252.383 857.619 255.592 857.494 259.467 857.452C263.342 857.41 267.842 857.285 272.634 857.244C277.467 857.202 282.593 857.202 287.759 857.16C290.343 857.16 292.885 857.16 295.426 857.202C297.968 857.202 300.468 857.244 302.843 857.244C307.677 857.285 312.177 857.369 316.01 857.452C319.885 857.494 323.094 857.619 325.344 857.661C327.594 857.744 328.886 857.786 328.886 857.786C328.886 857.786 327.594 857.828 325.344 857.911C323.094 857.953 319.885 858.078 316.01 858.119C312.135 858.161 307.635 858.286 302.843 858.328C300.427 858.328 297.926 858.37 295.426 858.37C292.885 858.37 290.343 858.37 287.759 858.411C282.634 858.411 277.467 858.37 272.634 858.328C267.801 858.286 263.3 858.203 259.467 858.119C255.592 858.078 252.383 857.953 250.133 857.911C247.883 857.828 246.592 857.786 246.592 857.786Z" fill="white"/>
<path d="M241.175 842.602C241.175 842.602 245.009 842.561 251.676 842.477C258.384 842.436 267.926 842.352 279.385 842.269C290.843 842.227 304.219 842.144 318.553 842.06C332.886 842.019 348.178 842.019 363.471 841.977C378.763 842.019 394.055 842.019 408.389 842.06C422.722 842.144 436.098 842.185 447.556 842.269C459.015 842.352 468.599 842.436 475.266 842.477C481.974 842.561 485.766 842.602 485.766 842.602C485.766 842.602 481.932 842.644 475.266 842.728C468.557 842.769 459.015 842.853 447.556 842.936C436.098 842.978 422.722 843.061 408.389 843.145C394.055 843.186 378.763 843.186 363.471 843.228C348.178 843.186 332.886 843.186 318.553 843.145C304.219 843.061 290.843 843.02 279.385 842.936C267.926 842.853 258.342 842.769 251.676 842.728C245.009 842.644 241.175 842.602 241.175 842.602Z" fill="white"/>
<path d="M819.901 847.733C819.901 847.733 821.151 847.691 823.317 847.608C825.484 847.566 828.568 847.441 832.276 847.399C835.984 847.358 840.318 847.233 844.943 847.191C849.568 847.149 854.527 847.149 859.485 847.107C861.944 847.107 864.444 847.107 866.86 847.149C869.277 847.149 871.694 847.191 874.027 847.191C878.652 847.233 882.986 847.316 886.694 847.399C890.403 847.441 893.486 847.566 895.653 847.608C897.82 847.691 899.07 847.733 899.07 847.733C899.07 847.733 897.82 847.775 895.653 847.858C893.486 847.9 890.403 848.025 886.694 848.067C882.986 848.108 878.652 848.234 874.027 848.275C871.694 848.275 869.319 848.317 866.86 848.317C864.444 848.317 861.944 848.317 859.485 848.359C854.527 848.359 849.568 848.317 844.943 848.275C840.318 848.234 835.984 848.15 832.276 848.067C828.568 848.025 825.484 847.9 823.317 847.858C821.109 847.775 819.901 847.733 819.901 847.733Z" fill="white"/>
<path d="M721.106 843.687C721.106 843.687 723.064 843.479 726.023 843.312C727.481 843.228 729.231 843.145 731.065 843.103C732.898 843.062 734.856 843.061 736.815 843.02C737.815 843.02 738.773 843.02 739.732 843.061C740.69 843.061 741.648 843.103 742.565 843.103C744.398 843.145 746.107 843.228 747.607 843.312C750.565 843.479 752.524 843.687 752.524 843.687C752.524 843.687 750.565 843.896 747.607 844.063C746.148 844.146 744.398 844.229 742.565 844.271C741.648 844.271 740.69 844.313 739.732 844.313C738.773 844.313 737.773 844.313 736.815 844.354C734.856 844.354 732.898 844.313 731.065 844.271C729.231 844.229 727.523 844.146 726.023 844.063C723.106 843.896 721.106 843.687 721.106 843.687Z" fill="white"/>
<path d="M927.529 842.602C927.529 842.602 929.696 842.561 933.488 842.477C937.279 842.436 942.696 842.31 949.196 842.269C955.697 842.227 963.28 842.102 971.405 842.06C979.531 842.019 988.198 842.019 996.865 841.977C1005.53 842.019 1014.2 842.019 1022.32 842.06C1030.45 842.06 1038.03 842.185 1044.53 842.269C1051.03 842.31 1056.45 842.436 1060.24 842.477C1064.03 842.561 1066.2 842.602 1066.2 842.602C1066.2 842.602 1064.03 842.644 1060.24 842.728C1056.45 842.769 1051.03 842.894 1044.53 842.936C1038.03 842.978 1030.45 843.103 1022.32 843.145C1014.2 843.186 1005.53 843.186 996.865 843.228C988.198 843.186 979.531 843.186 971.405 843.145C963.28 843.103 955.697 843.02 949.196 842.936C942.696 842.894 937.279 842.769 933.488 842.728C929.696 842.644 927.529 842.602 927.529 842.602Z" fill="white"/>
<path d="M752.148 881.603C752.148 881.603 754.107 881.561 757.565 881.478C760.982 881.436 765.899 881.311 771.774 881.269C777.649 881.227 784.524 881.102 791.9 881.06C799.275 881.019 807.108 881.019 814.942 880.977C822.776 881.019 830.651 881.019 837.984 881.06C845.36 881.06 852.193 881.186 858.11 881.269C863.985 881.311 868.902 881.436 872.319 881.478C875.736 881.561 877.736 881.603 877.736 881.603C877.736 881.603 875.777 881.644 872.319 881.728C868.902 881.769 863.985 881.895 858.11 881.936C852.235 881.978 845.36 882.103 837.984 882.145C830.609 882.187 822.776 882.187 814.942 882.228C807.108 882.187 799.233 882.187 791.9 882.145C784.524 882.103 777.691 882.02 771.774 881.936C765.899 881.895 760.982 881.769 757.565 881.728C754.107 881.644 752.148 881.603 752.148 881.603Z" fill="white"/>
<path d="M838.776 893.531C838.776 893.531 839.276 893.49 840.193 893.406C841.068 893.365 842.36 893.239 843.86 893.156C845.401 893.073 847.151 892.989 849.068 892.947C850.985 892.906 852.985 892.906 855.027 892.864C856.027 892.864 857.068 892.864 858.068 892.906C859.068 892.906 860.068 892.947 860.985 892.947C862.902 892.989 864.652 893.073 866.194 893.156C867.735 893.239 868.985 893.323 869.86 893.406C870.735 893.49 871.277 893.531 871.277 893.531C871.277 893.531 870.777 893.573 869.86 893.657C868.985 893.698 867.694 893.823 866.194 893.907C864.652 893.99 862.902 894.074 860.985 894.115C860.027 894.115 859.068 894.157 858.068 894.157C857.068 894.157 856.068 894.157 855.027 894.199C852.985 894.199 850.985 894.157 849.068 894.115C847.151 894.074 845.401 893.99 843.86 893.907C842.318 893.823 841.068 893.74 840.193 893.657C839.276 893.573 838.776 893.531 838.776 893.531Z" fill="white"/>
<path d="M630.895 882.687C630.895 882.687 631.561 882.645 632.728 882.562C633.895 882.52 635.52 882.395 637.52 882.312C639.52 882.228 641.811 882.145 644.27 882.103C646.728 882.061 649.395 882.061 652.02 882.02C653.353 882.02 654.645 882.02 655.979 882.061C657.27 882.061 658.562 882.103 659.812 882.103C662.27 882.145 664.604 882.228 666.562 882.312C668.562 882.395 670.187 882.479 671.354 882.562C672.521 882.645 673.187 882.687 673.187 882.687C673.187 882.687 672.521 882.729 671.354 882.812C670.187 882.854 668.562 882.979 666.562 883.063C664.562 883.146 662.27 883.229 659.812 883.271C658.562 883.271 657.312 883.313 655.979 883.313C654.687 883.313 653.353 883.313 652.02 883.354C649.395 883.354 646.728 883.313 644.27 883.271C641.811 883.229 639.478 883.146 637.52 883.063C635.52 882.979 633.895 882.896 632.728 882.812C631.561 882.77 630.895 882.687 630.895 882.687Z" fill="white"/>
<path d="M624.437 898.954C624.437 898.954 625.228 898.912 626.645 898.829C628.02 898.787 630.02 898.662 632.395 898.579C634.77 898.495 637.562 898.412 640.562 898.37C643.562 898.328 646.729 898.328 649.896 898.287C651.479 898.287 653.063 898.287 654.646 898.328C656.229 898.328 657.771 898.37 659.229 898.37C662.23 898.412 664.98 898.495 667.396 898.579C669.771 898.662 671.771 898.746 673.146 898.829C674.522 898.912 675.355 898.954 675.355 898.954C675.355 898.954 674.563 898.996 673.146 899.079C671.771 899.121 669.771 899.246 667.396 899.329C665.021 899.413 662.23 899.496 659.229 899.538C657.729 899.538 656.188 899.58 654.646 899.58C653.063 899.58 651.479 899.58 649.896 899.621C646.729 899.621 643.521 899.58 640.562 899.538C637.562 899.496 634.812 899.413 632.395 899.329C630.02 899.246 628.02 899.163 626.645 899.079C625.228 898.996 624.437 898.954 624.437 898.954Z" fill="white"/>
<path d="M448.306 886.274C448.306 886.274 449.848 886.065 452.182 885.898C453.348 885.815 454.723 885.732 456.182 885.69C457.64 885.648 459.182 885.648 460.765 885.606C461.557 885.606 462.307 885.606 463.098 885.648C463.848 885.648 464.64 885.69 465.349 885.69C466.807 885.732 468.182 885.815 469.349 885.898C471.682 886.065 473.224 886.274 473.224 886.274C473.224 886.274 471.682 886.482 469.349 886.649C468.182 886.733 466.807 886.816 465.349 886.858C464.599 886.858 463.848 886.899 463.098 886.899C462.348 886.899 461.557 886.899 460.765 886.941C459.223 886.941 457.64 886.899 456.182 886.858C454.723 886.816 453.348 886.733 452.182 886.649C449.848 886.482 448.306 886.274 448.306 886.274Z" fill="white"/>
<path d="M898.32 916.306C898.32 916.306 900.987 916.264 905.612 916.18C910.279 916.139 916.904 916.055 924.862 915.972C932.821 915.93 942.113 915.805 952.072 915.763C962.03 915.722 972.655 915.722 983.281 915.68C993.906 915.722 1004.53 915.722 1014.49 915.763C1024.45 915.763 1033.74 915.888 1041.7 915.972C1049.66 916.014 1056.32 916.139 1060.95 916.18C1065.62 916.264 1068.24 916.306 1068.24 916.306C1068.24 916.306 1065.57 916.347 1060.95 916.431C1056.28 916.472 1049.66 916.597 1041.7 916.639C1033.74 916.681 1024.45 916.806 1014.49 916.848C1004.53 916.889 993.906 916.889 983.281 916.931C972.655 916.889 962.03 916.889 952.072 916.848C942.113 916.806 932.821 916.723 924.862 916.639C916.904 916.556 910.237 916.472 905.612 916.431C900.945 916.347 898.32 916.306 898.32 916.306Z" fill="white"/>
<path d="M1043.37 904.377C1043.37 904.377 1044.62 904.335 1046.74 904.252C1048.91 904.21 1051.99 904.085 1055.7 904.043C1059.41 904.001 1063.74 903.876 1068.37 903.835C1072.99 903.793 1077.95 903.793 1082.87 903.751C1085.33 903.751 1087.83 903.751 1090.24 903.793C1092.66 903.793 1095.08 903.835 1097.37 903.835C1101.99 903.876 1106.33 903.96 1110.03 904.043C1113.74 904.085 1116.83 904.21 1118.99 904.252C1121.16 904.335 1122.37 904.377 1122.37 904.377C1122.37 904.377 1121.12 904.419 1118.99 904.502C1116.83 904.544 1113.74 904.669 1110.03 904.71C1106.33 904.752 1101.99 904.877 1097.37 904.919C1095.03 904.919 1092.66 904.961 1090.24 904.961C1087.83 904.961 1085.33 904.961 1082.87 905.002C1077.91 905.002 1072.99 904.961 1068.37 904.919C1063.74 904.877 1059.41 904.794 1055.7 904.71C1051.99 904.669 1048.91 904.544 1046.74 904.502C1044.62 904.419 1043.37 904.377 1043.37 904.377Z" fill="white"/>
<path d="M670.521 954.513C670.521 954.513 672.313 954.472 675.397 954.388C678.522 954.347 682.938 954.221 688.272 954.18C693.605 954.138 699.814 954.013 706.481 953.971C713.148 953.929 720.231 953.929 727.357 953.888C734.482 953.929 741.565 953.929 748.232 953.971C754.899 953.971 761.108 954.096 766.441 954.18C771.775 954.221 776.233 954.347 779.316 954.388C782.441 954.472 784.192 954.513 784.192 954.513C784.192 954.513 782.4 954.555 779.316 954.638C776.191 954.68 771.775 954.805 766.441 954.847C761.108 954.889 754.899 955.014 748.232 955.056C741.565 955.097 734.482 955.097 727.357 955.139C720.231 955.097 713.148 955.097 706.481 955.056C699.814 955.014 693.605 954.931 688.272 954.847C682.938 954.805 678.48 954.68 675.397 954.638C672.313 954.555 670.521 954.513 670.521 954.513Z" fill="white"/>
<path d="M852.402 963.19C852.402 963.19 854.402 963.148 857.902 963.064C861.403 963.023 866.444 962.898 872.445 962.856C878.486 962.814 885.487 962.689 893.029 962.647C900.57 962.606 908.571 962.606 916.612 962.564C924.654 962.606 932.655 962.606 940.197 962.647C947.738 962.647 954.739 962.772 960.78 962.856C966.822 962.898 971.822 963.023 975.323 963.064C978.823 963.148 980.823 963.19 980.823 963.19C980.823 963.19 978.823 963.231 975.323 963.315C971.822 963.356 966.781 963.482 960.78 963.523C954.739 963.565 947.738 963.69 940.197 963.732C932.655 963.774 924.654 963.774 916.612 963.815C908.571 963.774 900.57 963.774 893.029 963.732C885.487 963.69 878.486 963.607 872.445 963.523C866.403 963.482 861.403 963.356 857.902 963.315C854.444 963.231 852.402 963.19 852.402 963.19Z" fill="white"/>
<path d="M915.946 977.663C915.946 977.663 916.529 977.622 917.488 977.538C918.488 977.496 919.904 977.371 921.571 977.288C923.28 977.204 925.238 977.121 927.363 977.079C929.488 977.038 931.738 977.038 933.988 976.996C935.113 976.996 936.238 976.996 937.363 977.038C938.488 977.038 939.572 977.079 940.613 977.079C942.738 977.121 944.697 977.204 946.405 977.288C948.114 977.371 949.489 977.455 950.489 977.538C951.489 977.622 952.03 977.663 952.03 977.663C952.03 977.663 951.447 977.705 950.489 977.788C949.489 977.83 948.072 977.955 946.405 978.039C944.697 978.122 942.738 978.205 940.613 978.247C939.572 978.247 938.447 978.289 937.363 978.289C936.238 978.289 935.113 978.289 933.988 978.331C931.738 978.331 929.488 978.289 927.363 978.247C925.238 978.205 923.28 978.122 921.571 978.039C919.863 977.955 918.488 977.872 917.488 977.788C916.488 977.705 915.946 977.663 915.946 977.663Z" fill="white"/>
<path d="M461.224 914.054C461.224 914.054 463.182 914.012 466.557 913.929C469.932 913.887 474.807 913.762 480.641 913.72C486.474 913.678 493.266 913.553 500.516 913.512C507.808 913.47 515.559 913.47 523.309 913.428C531.059 913.47 538.809 913.47 546.101 913.512C553.393 913.512 560.185 913.637 565.977 913.72C571.81 913.762 576.644 913.887 580.06 913.929C583.436 914.012 585.394 914.054 585.394 914.054C585.394 914.054 583.436 914.096 580.06 914.179C576.685 914.221 571.81 914.346 565.977 914.388C560.143 914.429 553.351 914.554 546.101 914.596C538.809 914.638 531.059 914.638 523.309 914.68C515.559 914.638 507.808 914.638 500.516 914.596C493.225 914.554 486.433 914.471 480.641 914.388C474.807 914.346 469.974 914.221 466.557 914.179C463.182 914.096 461.224 914.054 461.224 914.054Z" fill="white"/>
<path d="M722.524 921.312C722.524 921.312 723.274 921.27 724.649 921.187C725.982 921.145 727.899 921.02 730.232 920.936C732.524 920.853 735.232 920.769 738.108 920.728C740.983 920.686 744.066 920.686 747.149 920.644C748.691 920.644 750.233 920.644 751.733 920.686C753.233 920.686 754.733 920.728 756.191 920.728C759.066 920.769 761.775 920.853 764.067 920.936C766.358 921.02 768.275 921.103 769.65 921.187C770.984 921.27 771.775 921.312 771.775 921.312C771.775 921.312 771.025 921.353 769.65 921.437C768.317 921.478 766.4 921.604 764.067 921.687C761.775 921.77 759.066 921.854 756.191 921.896C754.733 921.896 753.275 921.937 751.733 921.937C750.233 921.937 748.691 921.937 747.149 921.979C744.066 921.979 741.024 921.937 738.108 921.896C735.232 921.854 732.524 921.77 730.232 921.687C727.941 921.604 726.024 921.52 724.649 921.437C723.274 921.353 722.524 921.312 722.524 921.312Z" fill="white"/>
<path d="M514.643 966.067C514.643 966.067 515.435 966.026 516.893 965.942C518.31 965.9 520.352 965.775 522.768 965.692C525.185 965.608 528.06 965.525 531.102 965.483C534.144 965.442 537.394 965.442 540.644 965.4C542.269 965.4 543.894 965.4 545.477 965.442C547.061 965.442 548.644 965.483 550.186 965.483C553.228 965.525 556.061 965.608 558.519 965.692C560.936 965.775 562.978 965.859 564.395 965.942C565.811 966.026 566.645 966.067 566.645 966.067C566.645 966.067 565.853 966.109 564.395 966.192C562.978 966.234 560.936 966.359 558.519 966.443C556.103 966.526 553.228 966.61 550.186 966.651C548.644 966.651 547.102 966.693 545.477 966.693C543.894 966.693 542.269 966.693 540.644 966.735C537.394 966.735 534.144 966.693 531.102 966.651C528.06 966.61 525.227 966.526 522.768 966.443C520.352 966.359 518.31 966.276 516.893 966.192C515.435 966.151 514.643 966.067 514.643 966.067Z" fill="white"/>
<path d="M352.971 945.838C352.971 945.838 353.637 945.796 354.762 945.713C355.929 945.671 357.554 945.546 359.513 945.463C361.471 945.379 363.763 945.296 366.221 945.254C368.679 945.212 371.305 945.212 373.93 945.171C375.221 945.171 376.555 945.171 377.846 945.212C379.138 945.212 380.388 945.254 381.638 945.254C384.097 945.296 386.388 945.379 388.347 945.463C390.305 945.546 391.972 945.629 393.097 945.713C394.264 945.796 394.889 945.838 394.889 945.838C394.889 945.838 394.222 945.88 393.097 945.963C391.93 946.005 390.305 946.13 388.347 946.213C386.388 946.297 384.097 946.38 381.638 946.422C380.388 946.422 379.138 946.464 377.846 946.464C376.555 946.464 375.263 946.464 373.93 946.505C371.305 946.505 368.679 946.464 366.221 946.422C363.763 946.38 361.471 946.297 359.513 946.213C357.554 946.13 355.887 946.047 354.762 945.963C353.637 945.921 352.971 945.838 352.971 945.838Z" fill="white"/>
<path d="M260.593 967.528C260.593 967.528 261.926 967.486 264.26 967.402C266.593 967.361 269.927 967.236 273.927 967.194C277.927 967.152 282.594 967.027 287.552 966.985C292.552 966.944 297.886 966.944 303.178 966.902C305.844 966.902 308.511 966.902 311.136 966.944C313.761 966.944 316.345 966.985 318.845 966.985C323.845 967.027 328.512 967.11 332.47 967.194C336.47 967.236 339.804 967.361 342.137 967.402C344.47 967.486 345.804 967.528 345.804 967.528C345.804 967.528 344.47 967.569 342.137 967.653C339.804 967.694 336.47 967.819 332.47 967.861C328.47 967.903 323.803 968.028 318.845 968.07C316.345 968.07 313.761 968.111 311.136 968.111C308.511 968.111 305.844 968.111 303.178 968.153C297.844 968.153 292.511 968.111 287.552 968.07C282.552 968.028 277.885 967.945 273.927 967.861C269.927 967.819 266.593 967.694 264.26 967.653C261.926 967.569 260.593 967.528 260.593 967.528Z" fill="white"/>
<path opacity="0.8" d="M1.00098 956.766V949.174H1399.88V956.766H1.00098ZM1399.88 905.253V892.364H1.00098V905.253H1399.88ZM1399.88 879.517V874.22H1.00098V879.517H1399.88ZM1399.88 859.83V856.785H1.00098V859.83H1399.88ZM1399.88 933.282V927.234H1.00098V933.282H1399.88ZM1.00098 834.052H1399.88V828.755H1.00098V834.052Z" fill="url(#paint3_linear)"/>
<g opacity="0.3">
<path opacity="0.3" d="M1145.87 926.943C1145.87 926.275 1122.83 925.816 1094.82 925.816C1066.57 925.816 1043.78 926.275 1043.78 926.943C1043.78 927.526 1066.82 928.069 1094.82 928.069C1122.83 928.069 1145.87 927.485 1145.87 926.943Z" fill="white"/>
<path opacity="0.3" d="M841.566 931.864C841.566 931.197 779.648 930.738 704.312 930.738C628.977 930.738 567.058 931.197 567.058 931.864C567.058 932.448 628.977 932.99 704.312 932.99C779.648 932.99 841.566 932.532 841.566 931.864Z" fill="white"/>
<path opacity="0.3" d="M1041.91 939.288C1041.91 938.913 1028.16 938.621 1011.28 938.621C994.447 938.621 980.655 938.913 980.655 939.288C980.655 939.664 994.405 939.956 1011.28 939.956C1028.16 939.956 1041.91 939.58 1041.91 939.288Z" fill="white"/>
<path opacity="0.3" d="M957.278 908.797C957.278 908.422 926.778 908.13 889.485 908.13C852.15 908.13 821.691 908.422 821.691 908.797C821.691 909.173 852.192 909.465 889.485 909.465C926.778 909.465 957.278 909.173 957.278 908.797Z" fill="white"/>
<path opacity="0.3" d="M288.509 944.878C288.509 944.502 242.299 944.21 185.756 944.21C129.212 944.21 83.0024 944.502 83.0024 944.878C83.0024 945.253 129.212 945.545 185.756 945.545C241.507 945.545 288.509 945.253 288.509 944.878Z" fill="white"/>
<path opacity="0.3" d="M1370.08 876.597C1370.08 875.93 1347.04 875.471 1319.04 875.471C1290.79 875.471 1268 875.93 1268 876.597C1268 877.181 1291.04 877.724 1319.04 877.724C1347.33 877.64 1370.08 877.14 1370.08 876.597Z" fill="white"/>
<path opacity="0.3" d="M1185.66 871.633C1185.66 871.258 1172.37 870.966 1155.74 870.966C1139.37 870.966 1125.83 871.258 1125.83 871.633C1125.83 872.009 1139.12 872.301 1155.74 872.301C1172.16 872.301 1185.66 872.009 1185.66 871.633Z" fill="white"/>
<path opacity="0.3" d="M1155.78 881.602C1155.78 881.018 1132.74 880.476 1104.74 880.476C1076.49 880.476 1053.7 880.935 1053.7 881.602C1053.7 882.27 1076.74 882.728 1104.74 882.728C1132.74 882.77 1155.78 882.27 1155.78 881.602Z" fill="white"/>
<path opacity="0.3" d="M1060.57 894.616C1060.57 894.241 1046.82 893.949 1029.95 893.949C1013.11 893.949 999.322 894.241 999.322 894.616C999.322 894.992 1013.07 895.284 1029.95 895.284C1046.82 895.284 1060.57 894.992 1060.57 894.616Z" fill="white"/>
<path opacity="0.3" d="M1394.79 888.818C1394.79 888.443 1381.04 888.151 1364.17 888.151C1347.29 888.151 1333.54 888.443 1333.54 888.818C1333.54 889.194 1347.29 889.486 1364.17 889.486C1381.04 889.486 1394.79 889.236 1394.79 888.818Z" fill="white"/>
<path opacity="0.3" d="M1275.41 865.377C1275.41 865.001 1261.66 864.709 1244.79 864.709C1227.91 864.709 1214.16 865.001 1214.16 865.377C1214.16 865.752 1227.91 866.044 1244.79 866.044C1261.62 866.044 1275.41 865.752 1275.41 865.377Z" fill="white"/>
<path opacity="0.3" d="M1262.33 894.616C1262.33 894.241 1248.58 893.949 1231.7 893.949C1214.87 893.949 1201.08 894.241 1201.08 894.616C1201.08 894.992 1214.83 895.284 1231.7 895.284C1248.58 895.284 1262.33 894.992 1262.33 894.616Z" fill="white"/>
<path opacity="0.3" d="M509.348 940.415C509.348 939.748 486.306 939.289 458.305 939.289C430.054 939.289 407.261 939.748 407.261 940.415C407.261 940.999 430.304 941.541 458.305 941.541C486.556 941.541 509.348 941.082 509.348 940.415Z" fill="white"/>
<path opacity="0.3" d="M434.888 953.429C434.888 953.053 421.137 952.761 404.262 952.761C387.428 952.761 373.636 953.053 373.636 953.429C373.636 953.804 387.386 954.096 404.262 954.096C421.137 954.096 434.888 953.804 434.888 953.429Z" fill="white"/>
<path opacity="0.3" d="M979.487 947.714C979.487 947.339 965.737 947.047 948.861 947.047C932.027 947.047 918.235 947.339 918.235 947.714C918.235 948.089 931.986 948.381 948.861 948.381C965.695 948.381 979.487 948.131 979.487 947.714Z" fill="white"/>
<path opacity="0.3" d="M351.927 924.189C351.927 923.814 338.176 923.522 321.301 923.522C304.467 923.522 290.675 923.814 290.675 924.189C290.675 924.565 304.425 924.857 321.301 924.857C338.135 924.857 351.927 924.44 351.927 924.189Z" fill="white"/>
<path opacity="0.3" d="M1378.04 953.429C1378.04 953.053 1289.79 952.761 1181.74 952.761C1073.7 952.761 985.446 953.053 985.446 953.429C985.446 953.804 1073.7 954.096 1181.74 954.096C1289.75 954.096 1378.04 953.804 1378.04 953.429Z" fill="white"/>
<path opacity="0.3" d="M555.683 896.493C555.683 895.826 506.515 895.367 446.722 895.367C386.428 895.367 337.76 895.826 337.76 896.493C337.76 897.077 386.928 897.62 446.722 897.62C506.515 897.62 555.683 897.161 555.683 896.493Z" fill="white"/>
<path opacity="0.3" d="M196.422 854.74C196.422 854.365 174.88 854.073 147.921 854.073C121.378 854.073 99.4194 854.365 99.4194 854.74C99.4194 855.116 120.962 855.408 147.921 855.408C174.88 855.408 196.422 855.116 196.422 854.74Z" fill="white"/>
<path opacity="0.3" d="M249.674 864.709C249.674 864.125 207.965 863.583 157.171 863.583C105.962 863.583 64.6687 864.042 64.6687 864.709C64.6687 865.377 106.378 865.835 157.171 865.835C207.965 865.835 249.674 865.293 249.674 864.709Z" fill="white"/>
<path opacity="0.3" d="M270.717 876.889C270.717 876.513 256.966 876.221 240.091 876.221C223.215 876.221 209.465 876.513 209.465 876.889C209.465 877.264 223.215 877.556 240.091 877.556C256.966 877.556 270.717 877.264 270.717 876.889Z" fill="white"/>
<path opacity="0.3" d="M71.5856 877.514C71.5856 877.139 57.8352 876.847 40.9597 876.847C24.1258 876.847 10.3337 877.139 10.3337 877.514C10.3337 877.89 24.0841 878.182 40.9597 878.182C57.8352 878.182 71.5856 877.931 71.5856 877.514Z" fill="white"/>
<path opacity="0.3" d="M405.763 871.925C405.763 871.55 392.012 871.258 375.137 871.258C358.303 871.258 344.511 871.55 344.511 871.925C344.511 872.301 358.261 872.593 375.137 872.593C392.012 872.593 405.763 872.301 405.763 871.925Z" fill="white"/>
<path opacity="0.3" d="M286.383 848.276C286.383 847.9 272.633 847.608 255.757 847.608C238.882 847.608 225.131 847.9 225.131 848.276C225.131 848.651 238.882 848.943 255.757 848.943C272.633 848.943 286.383 848.651 286.383 848.276Z" fill="white"/>
<path opacity="0.3" d="M871.693 842.019C871.693 841.351 848.65 840.892 820.649 840.892C792.399 840.892 769.606 841.351 769.606 842.019C769.606 842.602 792.649 843.145 820.649 843.145C848.692 843.061 871.693 842.561 871.693 842.019Z" fill="white"/>
<path opacity="0.3" d="M648.937 845.689C648.937 845.105 625.895 844.562 597.894 844.562C569.643 844.562 546.851 845.021 546.851 845.689C546.851 846.356 569.893 846.815 597.894 846.815C626.145 846.815 648.937 846.314 648.937 845.689Z" fill="white"/>
<path opacity="0.3" d="M562.184 859.954C562.184 859.579 548.434 859.287 531.558 859.287C514.683 859.287 500.932 859.579 500.932 859.954C500.932 860.329 514.683 860.621 531.558 860.621C548.434 860.621 562.184 860.329 562.184 859.954Z" fill="white"/>
<path opacity="0.3" d="M896.151 854.24C896.151 853.865 882.401 853.573 865.526 853.573C848.692 853.573 834.9 853.865 834.9 854.24C834.9 854.615 848.65 854.907 865.526 854.907C882.401 854.907 896.151 854.657 896.151 854.24Z" fill="white"/>
<path opacity="0.3" d="M763.94 859.954C763.94 859.579 730.939 859.287 690.521 859.287C650.103 859.287 617.102 859.579 617.102 859.954C617.102 860.329 650.103 860.621 690.521 860.621C730.939 860.621 763.94 860.329 763.94 859.954Z" fill="white"/>
</g>
<path d="M1370.33 495.067L1206.66 706.583C1198.16 717.512 1184.54 717.303 1176.45 706.125L1107.7 611.232L1028.41 717.971C1020.16 729.066 1006.16 729.399 997.322 718.68L841.776 529.187L656.187 770.485C647.77 781.455 633.686 781.621 624.894 770.86L520.35 642.14L457.056 708.252C447.222 718.262 433.097 716.969 425.68 705.415L290.676 495.151L65.6694 809.192H1400.04L1400.5 535.61L1370.33 495.067Z" fill="#4C4588"/>
<path d="M1348.37 570.063L1362.33 572.191L1328.87 549.959V548.499L1342.62 553.296L1340.17 549.542L1348.71 551.544L1343.37 544.62L1349.42 546.121L1345.87 542.242L1358.21 544.286L1328.58 523.18V522.93L1340.04 527.226L1338 523.931L1345.08 525.683L1341.92 521.804L1345.71 522.847L1342.79 519.385L1352.96 521.22L1328.41 502.45L1328.37 501.574L1337.42 505.87L1335.75 502.575L1341.33 504.285L1338.12 499.322L1341.87 500.615L1339.54 497.153L1347.54 498.946L1328.12 480.093V479.926L1334.33 484.222L1333.25 480.927L1337.08 482.679L1334.75 477.674L1337.46 479.008L1335.87 475.588L1341.42 477.423L1327.87 458.403V456.943L1332.29 460.364L1330.33 453.815L1334.54 456.151L1327.71 439.717L1320.87 456.151L1324.75 453.982L1322.83 460.364L1327.5 456.777L1327.46 458.445L1313.96 477.423L1319.5 475.588L1317.91 479.008L1320.29 477.841L1318.04 482.679L1321.87 480.927L1320.79 484.222L1327.25 479.759L1327.21 480.093L1307.83 498.946L1315.87 497.153L1313.5 500.615L1316.91 499.405L1313.79 504.285L1319.37 502.575L1317.71 505.87L1327 501.449V502.45L1302.41 521.22L1312.62 519.385L1309.66 522.847L1313.12 521.887L1310.04 525.683L1317.12 523.931L1315.08 527.226L1326.75 522.847V523.18L1297.16 544.286L1309.5 542.242L1305.96 546.121L1311.66 544.703L1306.41 551.544L1314.96 549.542L1312.5 553.296L1326.54 548.374L1326.5 549.959L1293.04 572.191L1307 570.063L1302.96 574.151L1308.21 572.9L1303.54 578.322L1313.25 576.278L1310.41 580.199L1326.25 575.111L1326.21 576.32L1325.5 615.862H1329.91L1329.16 576.32V575.194L1344.71 580.199L1341.87 576.278L1351.58 578.322L1346.83 572.858L1352.42 574.151L1348.37 570.063Z" fill="#4C4588"/>
<path d="M894.527 574.902L908.486 577.029L875.027 554.797V553.337L888.777 558.134L886.319 554.38L894.86 556.382L889.527 549.458L895.569 550.96L892.027 547.08L904.361 549.124L874.735 528.018V527.768L886.194 532.064L884.152 528.769L891.235 530.521L888.069 526.642L891.86 527.685L888.902 524.265L899.111 526.1L874.568 507.288L874.527 506.412L883.569 510.708L881.902 507.413L887.485 509.123L884.277 504.16L888.027 505.453L885.694 502.033L893.694 503.784L874.235 484.931V484.764L880.485 489.06L879.402 485.765L883.235 487.517L880.902 482.512L883.61 483.847L882.027 480.426L887.569 482.262L874.027 463.241L873.985 461.823L878.443 465.244L876.485 458.653L880.693 460.989L873.86 444.555L867.026 460.989L870.901 458.82L868.985 465.244L873.61 461.656V463.283L860.109 482.262L865.651 480.426L864.068 483.847L866.443 482.679L864.193 487.517L868.026 485.765L866.943 489.06L873.36 484.639V484.931L853.984 503.784L861.984 502.033L859.651 505.453L863.068 504.285L859.943 509.123L865.485 507.413L863.86 510.708L873.152 506.287V507.288L848.567 526.1L858.776 524.265L855.818 527.685L859.276 526.725L856.193 530.521L863.276 528.769L861.235 532.064L872.902 527.727V528.018L843.317 549.124L855.651 547.08L852.109 550.96L857.818 549.541L852.568 556.382L861.11 554.38L858.651 558.134L872.693 553.254L872.651 554.797L839.192 577.029L853.151 574.902L849.109 578.989L854.359 577.78L849.692 583.202L859.359 581.158L856.568 585.079L872.36 579.949V581.2L871.651 620.7H876.068L875.318 581.2V580.032L890.86 585.079L888.027 581.158L897.736 583.202L892.985 577.696L898.569 578.989L894.527 574.902Z" fill="#4C4588"/>
<path d="M251.967 622.869L265.925 624.996L232.466 602.764V601.263L246.217 606.101L243.8 602.347L252.3 604.308L247.008 597.384L253.05 598.927L249.508 595.006L261.8 597.092L232.174 575.986V575.736L243.675 579.99L241.633 576.695L248.675 578.489L245.508 574.61L249.342 575.611L246.383 572.19L256.592 574.026L232.008 555.214V554.38L241.008 558.634L239.383 555.339L244.925 557.049L241.716 552.086L245.508 553.379L243.133 549.958L251.133 551.71L231.716 532.857V532.732L237.966 536.986L236.841 533.691L240.675 535.443L238.341 530.438L241.091 531.814L239.508 528.394L245.008 530.187L231.466 511.167V509.749L235.925 513.169L233.924 506.579L238.133 508.915L231.299 492.481L224.466 508.915L228.341 506.788L226.424 513.169L231.091 509.582V511.251L217.591 530.187L223.132 528.394L221.507 531.814L223.924 530.605L221.674 535.443L225.508 533.691L224.383 536.986L230.841 532.565V532.857L211.465 551.71L219.466 549.958L217.091 553.379L220.507 552.211L217.424 557.049L222.966 555.339L221.341 558.634L230.633 554.213L230.591 555.214L206.049 574.026L216.216 572.19L213.257 575.611L216.757 574.693L213.674 578.489L220.716 576.695L218.674 579.99L230.383 575.652L230.341 575.986L200.798 597.092L213.091 595.006L209.549 598.927L215.257 597.467L210.007 604.308L218.549 602.347L216.091 606.101L230.133 601.179V602.764L196.673 624.996L210.632 622.869L206.549 626.915L211.84 625.705L207.174 631.128L216.841 629.084L214.007 633.005L229.841 627.874V629.126L229.091 668.626H233.549L232.758 629.126V627.958L248.3 633.005L245.508 629.084L255.175 631.128L250.425 625.622L256.05 626.915L251.967 622.869Z" fill="#4C4588"/>
<path d="M583.434 495.693L592.184 497.028L571.225 483.096V482.179L579.85 485.182L578.309 482.846L583.642 484.097L580.309 479.759L584.101 480.719L581.892 478.258L589.601 479.551L571.059 466.329V466.203L578.225 468.873L576.934 466.787L581.351 467.914L579.392 465.494L581.767 466.12L579.934 463.951L586.309 465.119L570.934 453.356V452.814L576.559 455.484L575.559 453.44L579.017 454.483L577.017 451.396L579.392 452.189L577.892 450.061L582.934 451.146L570.767 439.342L570.725 439.258L574.642 441.928L573.975 439.884L576.35 440.968L574.892 437.84L576.6 438.674L575.6 436.547L579.059 437.673L570.6 425.785V424.868L573.35 427.037L572.142 422.907L574.767 424.367L570.475 414.065L566.225 424.367L568.642 423.033L567.433 427.037L570.35 424.784V425.827L561.892 437.673L565.35 436.547L564.35 438.674L565.85 437.965L564.433 440.968L566.85 439.884L566.142 441.928L570.183 439.175V439.342L558.058 451.146L563.058 450.061L561.6 452.189L563.725 451.479L561.808 454.483L565.267 453.44L564.225 455.484L570.058 452.731V453.356L554.683 465.119L561.058 463.951L559.225 466.12L561.392 465.536L559.433 467.914L563.85 466.787L562.6 468.873L569.892 466.12V466.329L551.391 479.551L559.1 478.258L556.891 480.719L560.433 479.801L557.183 484.097L562.517 482.846L560.975 485.182L569.767 482.137V483.096L548.808 497.028L557.558 495.693L555.016 498.237L558.308 497.487L555.391 500.865L561.433 499.572L559.683 502.033L569.558 498.821V499.614L569.1 524.348H571.892L571.392 499.614V498.905L581.142 502.033L579.392 499.572L585.434 500.865L582.476 497.445L585.976 498.237L583.434 495.693Z" fill="#736C9D"/>
<path d="M1009.16 253.019L1014.24 253.811L1002.03 245.678L1001.99 245.135L1007.03 246.887L1006.16 245.511L1009.28 246.261L1007.32 243.717L1009.53 244.259L1008.24 242.841L1012.74 243.592L1001.91 235.875V235.792L1006.11 237.377L1005.36 236.167L1007.95 236.793L1006.78 235.375L1008.16 235.75L1007.11 234.499L1010.82 235.166L1001.82 228.284V227.992L1005.11 229.535L1004.53 228.326L1006.57 228.951L1005.41 227.158L1006.78 227.617L1005.91 226.365L1008.82 227.033L1001.74 220.109V220.067L1003.99 221.61L1003.61 220.442L1005.03 221.068L1004.16 219.233L1005.16 219.733L1004.57 218.482L1006.61 219.149L1001.66 212.184V211.641L1003.28 212.893L1002.53 210.515L1004.07 211.349L1001.57 205.343L999.072 211.349L1000.49 210.557L999.78 212.893L1001.49 211.6V212.225L996.572 219.149L998.572 218.482L997.988 219.733L998.863 219.316L998.03 221.068L999.447 220.442L999.03 221.61L1001.41 220.025V220.109L994.322 227.033L997.238 226.365L996.405 227.617L997.655 227.2L996.488 228.951L998.53 228.326L997.947 229.535L1001.32 227.95V228.284L992.322 235.166L996.072 234.499L994.988 235.75L996.238 235.417L995.113 236.793L997.697 236.167L996.947 237.377L1001.24 235.75V235.875L990.405 243.592L994.905 242.841L993.613 244.259L995.697 243.759L993.78 246.261L996.905 245.511L996.03 246.887L1001.16 245.094V245.678L988.905 253.811L994.03 253.019L992.53 254.52L994.447 254.061L992.738 256.064L996.28 255.313L995.238 256.731L1001.03 254.896V255.313L1000.78 269.786H1002.41L1002.11 255.313V254.896L1007.82 256.731L1006.78 255.313L1010.32 256.064L1008.57 254.061L1010.61 254.52L1009.16 253.019Z" fill="#C3A8BA"/>
<path d="M1127.83 352.207L1133.28 353.042L1120.24 344.366V343.823L1125.62 345.659L1124.66 344.199L1127.95 344.991L1125.91 342.28L1128.24 342.906L1126.87 341.362L1131.66 342.155L1120.12 333.938V333.854L1124.62 335.523L1123.78 334.23L1126.53 334.939L1125.33 333.396L1126.78 333.813L1125.66 332.478L1129.62 333.187L1120.08 325.888L1120.03 325.554L1123.58 327.222L1122.91 325.929L1125.08 326.597L1123.83 324.636L1125.33 325.137L1124.41 323.802L1127.53 324.511L1119.95 317.17V317.087L1122.37 318.755L1121.95 317.504L1123.45 318.171L1122.53 316.211L1123.58 316.753L1122.99 315.418L1125.12 316.127L1119.87 308.703V308.161L1121.58 309.495L1120.83 306.951L1122.45 307.827L1119.78 301.445L1117.12 307.827L1118.62 306.993L1117.87 309.495L1119.7 308.119V308.744L1114.45 316.127L1116.58 315.418L1115.99 316.753L1116.91 316.294L1116.03 318.171L1117.53 317.504L1117.08 318.755L1119.62 317.045V317.17L1112.03 324.511L1115.16 323.802L1114.24 325.137L1115.58 324.72L1114.37 326.597L1116.53 325.929L1115.91 327.222L1119.53 325.471L1119.49 325.888L1109.95 333.187L1113.91 332.478L1112.78 333.813L1114.12 333.437L1112.91 334.939L1115.66 334.23L1114.87 335.523L1119.41 333.813V333.938L1107.91 342.155L1112.7 341.362L1111.32 342.906L1113.53 342.322L1111.49 344.991L1114.83 344.199L1113.87 345.659L1119.33 343.782V344.366L1106.28 353.042L1111.74 352.207L1110.16 353.792L1112.2 353.333L1110.37 355.419L1114.16 354.627L1113.03 356.17L1119.2 354.168V354.668L1118.91 370.06H1120.66L1120.37 354.668V354.209L1126.41 356.17L1125.33 354.627L1129.08 355.419L1127.24 353.292L1129.41 353.792L1127.83 352.207Z" fill="#C3A8BA"/>
<path d="M747.231 301.779L752.648 302.613L739.648 293.937V293.353L744.981 295.23L744.023 293.77L747.356 294.563L745.273 291.851L747.648 292.435L746.273 290.934L751.065 291.726L739.523 283.509V283.426L743.981 285.094L743.189 283.801L745.94 284.469L744.731 282.967L746.19 283.384L745.064 282.049L749.023 282.758L739.439 275.417V275.084L742.939 276.752L742.314 275.501L744.481 276.168L743.231 274.208L744.689 274.708L743.773 273.373L746.898 274.083L739.356 266.741L739.314 266.658L741.773 268.326L741.314 267.033L742.814 267.742L741.898 265.782L742.981 266.324L742.356 264.99L744.523 265.699L739.231 258.274V257.732L740.981 259.067L740.189 256.48L741.856 257.398L739.189 251.016L736.523 257.398L738.023 256.564L737.273 259.067L739.106 257.648V258.316L733.814 265.699L735.981 264.99L735.356 266.324L736.314 265.865L735.439 267.742L736.898 267.033L736.481 268.326L738.981 266.616V266.741L731.439 274.083L734.564 273.373L733.648 274.708L734.981 274.249L733.773 276.168L735.939 275.501L735.273 276.752L738.898 275.042V275.417L729.314 282.758L733.314 282.049L732.147 283.384L733.522 283.009L732.314 284.469L735.064 283.801L734.273 285.094L738.814 283.384V283.509L727.272 291.726L732.106 290.934L730.731 292.435L732.939 291.893L730.897 294.563L734.231 293.77L733.272 295.23L738.731 293.311V293.937L725.689 302.613L731.106 301.779L729.522 303.364L731.606 302.863L729.772 304.99L733.522 304.198L732.439 305.741L738.606 303.739V304.198L738.314 319.589H740.064L739.731 304.198V303.781L745.815 305.741L744.689 304.198L748.481 304.99L746.606 302.863L748.815 303.364L747.231 301.779Z" fill="#D3B5BB"/>
<path d="M859.526 211.474L864.984 212.308L851.942 203.674V203.09L857.318 204.967L856.359 203.507L859.651 204.258L857.609 201.589L859.943 202.173L858.568 200.629L863.359 201.464L851.817 193.246V193.121L856.318 194.79L855.484 193.538L858.234 194.206L857.026 192.704L858.484 193.08L857.359 191.745L861.318 192.454L851.776 185.155L851.734 184.821L855.276 186.489L854.609 185.196L856.776 185.864L855.526 183.945L857.026 184.445L856.109 183.111L859.234 183.778L851.651 176.437V176.395L854.067 178.064L853.651 176.771L855.151 177.438L854.234 175.519L855.276 176.02L854.692 174.685L856.818 175.394L851.567 168.011V167.427L853.276 168.762L852.526 166.218L854.151 167.135L851.484 160.712L848.817 167.135L850.317 166.301L849.609 168.762L851.401 167.386V168.011L846.151 175.394L848.276 174.685L847.692 176.02L848.609 175.561L847.734 177.438L849.234 176.771L848.776 178.064L851.317 176.312V176.437L843.734 183.778L846.859 183.111L845.942 184.445L847.276 183.987L846.067 185.864L848.234 185.196L847.609 186.489L851.234 184.779L851.192 185.155L841.65 192.454L845.609 191.745L844.484 193.08L845.817 192.746L844.609 194.206L847.359 193.538L846.567 194.79L851.109 193.121V193.246L839.609 201.464L844.4 200.629L843.026 202.173L845.234 201.589L843.192 204.258L846.526 203.507L845.567 204.967L851.026 203.049V203.674L837.984 212.308L843.442 211.474L841.859 213.059L843.9 212.6L842.067 214.728L845.859 213.935L844.776 215.437L850.901 213.435V213.935L850.609 229.326H852.359L852.067 213.935V213.476L858.109 215.437L857.026 213.935L860.776 214.728L858.943 212.559L861.109 213.059L859.526 211.474Z" fill="#D3B5BB"/>
<path d="M269.342 391.332L274.759 392.124L261.759 383.49L261.717 382.906L267.092 384.783L266.134 383.323L269.467 384.116L267.384 381.405L269.759 381.989L268.384 380.487L273.175 381.279L261.634 373.062V372.979L266.092 374.606L265.3 373.354L268.05 374.022L266.8 372.52L268.3 372.937L267.134 371.602L271.134 372.312L261.55 364.97V364.637L265.05 366.305L264.425 365.012L266.592 365.68L265.342 363.761L266.8 364.261L265.884 362.927L269.009 363.636L261.425 356.253V356.211L263.884 357.88L263.425 356.587L264.925 357.296L264.009 355.335L265.092 355.836L264.467 354.501L266.634 355.252L261.342 347.827V347.285L263.092 348.578L262.3 346.034L263.925 346.951L261.3 340.528L258.633 346.951L260.133 346.117L259.383 348.578L261.217 347.202L261.175 347.827L255.925 355.252L258.092 354.501L257.467 355.836L258.383 355.377L257.508 357.296L259.008 356.587L258.592 357.88L261.092 356.169V356.253L253.55 363.636L256.675 362.927L255.758 364.261L257.092 363.803L255.883 365.68L258.05 365.012L257.383 366.305L261.008 364.595V364.97L251.425 372.312L255.425 371.602L254.258 372.937L255.592 372.562L254.425 374.022L257.175 373.354L256.383 374.606L260.925 372.937V373.062L249.383 381.279L254.175 380.487L252.8 381.989L255.05 381.446L253.008 384.116L256.3 383.323L255.342 384.783L260.842 382.864V383.49L247.8 392.124L253.217 391.332L251.633 392.917L253.717 392.416L251.883 394.543L255.633 393.751L254.55 395.253L260.717 393.292V393.751L260.425 409.142H262.134L261.842 393.751V393.292L267.925 395.253L266.8 393.751L270.592 394.543L268.717 392.375L270.925 392.917L269.342 391.332Z" fill="#D3B5BB"/>
<path d="M429.139 310.121L434.556 310.913L421.514 302.279V301.695L426.889 303.572L425.931 302.112L429.264 302.905L427.181 300.194L429.556 300.778L428.181 299.276L432.972 300.069L421.43 291.851V291.768L425.889 293.395L425.097 292.143L427.847 292.811L426.597 291.309L428.097 291.726L426.931 290.35L430.931 291.101L421.347 283.76V283.426L424.847 285.094L424.222 283.801L426.389 284.469L425.139 282.55L426.597 283.05L425.681 281.716L428.806 282.425L421.222 275.042V275L423.68 276.669L423.222 275.376L424.722 276.085L423.805 274.124L424.889 274.625L424.264 273.29L426.431 274.041L421.139 266.616V266.074L422.847 267.367L422.097 264.823L423.722 265.74L421.055 259.317L418.43 265.74L419.93 264.906L419.18 267.367L420.972 265.991V266.616L415.722 274.041L417.889 273.29L417.264 274.625L418.18 274.166L417.305 276.085L418.805 275.376L418.389 276.669L420.889 274.959V275.042L413.347 282.425L416.472 281.716L415.555 283.05L416.889 282.592L415.68 284.469L417.805 283.801L417.18 285.094L420.805 283.384V283.76L411.222 291.101L415.18 290.35L414.055 291.726L415.389 291.351L414.18 292.811L416.93 292.143L416.139 293.395L420.722 291.726V291.851L409.18 300.069L413.972 299.276L412.597 300.778L414.847 300.235L412.763 302.905L416.097 302.112L415.139 303.572L420.597 301.654V302.279L407.597 310.913L413.014 310.121L411.43 311.706L413.472 311.205L411.68 313.333L415.43 312.54L414.347 314.042L420.514 312.081V312.54L420.222 327.931H421.93L421.639 312.54V312.081L427.681 314.042L426.597 312.54L430.389 313.333L428.514 311.164L430.722 311.706L429.139 310.121Z" fill="#C3A8BA"/>
<path d="M53.2098 467.371L61.9184 468.706L41.0011 454.775V453.857L49.5847 456.86L48.0846 454.524L53.4181 455.776L50.0847 451.438L53.8765 452.355L51.6264 449.936L59.335 451.229L40.7927 438.007V437.84L48.0013 440.551L46.7096 438.466L51.1264 439.592L49.168 437.131L51.5431 437.798L49.7097 435.629L56.0849 436.797L40.7094 425.035L40.6677 424.492L46.3346 427.162L45.2929 425.118L48.793 426.161L46.7929 423.074L49.1263 423.867L47.6679 421.739L52.6681 422.824L40.5011 411.02V410.936L44.4178 413.606L43.7095 411.562L46.1262 412.646L44.6679 409.518L46.3762 410.352L45.3762 408.225L48.8346 409.351L40.3761 397.464L40.3344 396.546L43.1261 398.715L41.9178 394.586L44.5428 396.045L40.2511 385.743L35.9593 396.045L38.4177 394.711L37.2093 398.715L40.126 396.463V397.505L31.6675 409.351L35.1259 408.225L34.1259 410.352L35.6259 409.643L34.2092 412.646L36.6259 411.562L35.9176 413.606L39.9594 410.853V411.02L27.834 422.824L32.8342 421.739L31.3758 423.867L33.5009 423.158L31.5425 426.161L35.0426 425.118L34.0009 427.162L39.8344 424.409L39.7927 425.035L24.4172 436.797L30.7924 435.629L28.959 437.798L31.1258 437.214L29.2091 439.592L33.6259 438.466L32.3342 440.551L39.6677 437.798V438.007L21.1672 451.229L28.8757 449.936L26.6256 452.355L30.2091 451.479L26.9173 455.776L32.2925 454.524L30.7508 456.86L39.501 453.773V454.775L18.5837 468.706L27.2923 467.371L24.7506 469.916L28.084 469.165L25.1256 472.543L31.2091 471.25L29.4174 473.711L39.3344 470.5V471.292L38.876 496.027H41.6678L41.1677 471.292V470.583L50.918 473.711L49.1263 471.25L55.2098 472.543L52.2514 469.081L55.7515 469.916L53.2098 467.371Z" fill="#736C9D"/>
<path d="M129.546 504.494L138.255 505.828L117.338 491.939V491.021L125.921 494.024L124.421 491.688L129.755 492.898L126.421 488.56L130.213 489.519L127.963 487.1L135.672 488.393L117.129 475.171V475.004L124.338 477.673L123.046 475.63L127.463 476.714L125.505 474.295L127.88 474.921L126.046 472.793L132.422 473.961L117.046 462.157L117.004 461.656L122.671 464.326L121.63 462.24L125.13 463.325L123.13 460.197L125.463 461.031L124.005 458.862L129.005 459.988L116.838 448.184V448.1L120.755 450.77L120.046 448.684L122.463 449.811L121.005 446.682L122.713 447.516L121.713 445.389L125.171 446.515L116.713 434.586L116.671 433.71L119.463 435.837L118.254 431.75L120.88 433.21L116.588 422.907L112.296 433.21L114.754 431.833L113.546 435.837L116.463 433.627V434.628L108.004 446.515L111.463 445.389L110.463 447.516L111.963 446.766L110.546 449.811L112.963 448.684L112.254 450.77L116.296 447.975V448.184L104.171 459.988L109.171 458.862L107.712 461.031L109.838 460.28L107.879 463.325L111.379 462.24L110.338 464.326L116.171 461.573L116.129 462.157L100.754 473.961L107.129 472.793L105.296 474.921L107.462 474.337L105.546 476.714L109.963 475.63L108.671 477.673L116.004 474.962V475.171L97.5038 488.393L105.212 487.1L102.962 489.519L106.546 488.643L103.254 492.898L108.587 491.688L107.087 494.024L115.838 490.938V491.939L94.9204 505.828L103.629 504.494L101.087 507.08L104.421 506.287L101.462 509.707L107.546 508.414L105.754 510.875L115.671 507.664V508.456L115.213 533.191H118.004L117.504 508.456V507.705L127.255 510.875L125.463 508.414L131.546 509.707L128.546 506.245L132.088 507.08L129.546 504.494Z" fill="#736C9D"/>
<path d="M985.572 635.091L1004.28 637.927L959.488 608.146L959.446 606.185L977.905 612.609L974.613 607.603L986.03 610.273L978.905 600.971L986.989 603.015L982.28 597.801L998.739 600.554L959.071 572.316V571.982L974.447 577.697L971.696 573.275L981.155 575.653L976.947 570.439L982.03 571.815L978.072 567.227L991.739 569.688L958.821 544.495V543.368L970.905 549.083L968.696 544.703L976.155 546.956L971.863 540.324L976.905 542.034L973.738 537.446L984.489 539.823L958.446 514.588V514.379L966.78 520.094L965.321 515.672L970.446 518.05L967.321 511.334L970.988 513.17L968.863 508.54L976.28 511.001L958.113 485.515V483.597L964.071 488.185L961.405 479.384L967.03 482.512L957.904 460.489L948.738 482.512L953.946 479.634L951.363 488.185L957.613 483.388L957.571 485.599L939.529 511.001L946.946 508.54L944.779 513.17L947.987 511.585L944.987 518.05L950.113 515.672L948.654 520.094L957.279 514.171V514.588L931.32 539.823L942.029 537.446L938.862 542.034L943.446 540.49L939.279 546.956L946.737 544.703L944.529 549.083L956.988 543.202L956.946 544.495L924.07 569.688L937.695 567.227L933.737 571.815L938.404 570.564L934.279 575.653L943.737 573.275L940.987 577.697L956.654 571.857L956.613 572.316L917.028 600.554L933.529 597.801L928.779 603.015L936.404 601.096L929.404 610.273L940.821 607.603L937.529 612.609L956.321 606.06V608.146L911.528 637.927L930.195 635.091L924.778 640.555L931.82 638.887L925.57 646.144L938.529 643.433L934.737 648.689L955.946 641.848L955.904 643.475L954.946 696.406H960.863L959.863 643.475V641.931L980.697 648.689L976.905 643.433L989.864 646.144L983.53 638.803L991.03 640.555L985.572 635.091Z" fill="#4C4588"/>
<path d="M509.141 654.695L524.85 657.073L487.182 632.046V630.378L502.683 635.8L499.933 631.587L509.516 633.84L503.516 625.998L510.35 627.75L506.349 623.328L520.225 625.664L486.849 601.889V601.597L499.766 606.436L497.474 602.723L505.433 604.725L501.891 600.346L506.183 601.514L502.849 597.635L514.308 599.678L486.64 578.531V577.572L496.807 582.368L494.974 578.698L501.224 580.616L497.599 574.985L501.849 576.445L499.183 572.608L508.224 574.61L486.349 553.379L486.307 553.171L493.349 558.009L492.099 554.297L496.432 556.257L493.807 550.626L496.891 552.17L495.099 548.29L501.308 550.376L486.057 528.937V527.31L491.057 531.147L488.849 523.764L493.557 526.392L485.849 507.873L478.182 526.392L482.557 523.973L480.39 531.147L485.64 527.143L485.599 529.02L470.39 550.376L476.64 548.29L474.848 552.17L477.557 550.835L475.015 556.257L479.307 554.297L478.099 558.009L485.349 553.004V553.379L463.515 574.61L472.515 572.608L469.89 576.445L473.723 575.152L470.223 580.616L476.474 578.698L474.64 582.368L485.099 577.405L485.057 578.531L457.39 599.678L468.89 597.635L465.557 601.514L469.473 600.429L465.973 604.725L473.932 602.723L471.64 606.436L484.807 601.514V601.889L451.514 625.664L465.348 623.328L461.39 627.75L467.807 626.123L461.89 633.84L471.515 631.587L468.765 635.8L484.557 630.294V632.046L446.848 657.073L462.598 654.695L458.015 659.283L463.931 657.907L458.681 663.997L469.557 661.703L466.39 666.124L484.224 660.368V661.744L483.39 706.25H488.391L487.516 661.744V660.451L505.016 666.124L501.849 661.703L512.766 663.997L507.433 657.823L513.725 659.283L509.141 654.695Z" fill="#4C4588"/>
<path d="M828.442 594.381L835.109 594.506L824.525 575.069H829.734L820.859 558.259H824.067L817.234 544.411H820.275L814.483 531.481L817.567 531.439L811.525 517.007L813.942 516.966C808.9 506.246 805.817 488.936 805.817 488.936C805.817 488.936 802.733 506.246 797.691 516.966L800.108 517.007L794.066 531.439L797.15 531.481L791.358 544.411H794.399L787.566 558.259H790.774L781.899 575.069H787.108L776.524 594.506L783.191 594.381L769.815 618.031H805.775H841.734L828.442 594.381Z" fill="#4C4588"/>
<path d="M1052.28 707.626L1058.95 707.751L1048.37 688.314H1053.57L1044.7 671.504H1047.91L1041.07 657.656H1044.12L1038.32 644.726L1041.41 644.684L1035.36 630.252L1037.78 630.21C1032.74 619.491 1029.66 602.181 1029.66 602.181C1029.66 602.181 1026.57 619.491 1021.53 630.21L1023.95 630.252L1017.91 644.684L1020.99 644.726L1015.2 657.656H1018.24L1011.41 671.504H1014.61L1005.74 688.314H1010.95L1000.36 707.751L1007.03 707.626L993.655 731.276H1029.61H1065.57L1052.28 707.626Z" fill="#4C4588"/>
<path d="M181.339 697.574L188.006 697.699L177.423 678.262H182.631L173.756 661.452H176.964L170.131 647.604H173.172L167.381 634.674L170.464 634.632L164.422 620.2L166.839 620.158C161.797 609.439 158.714 592.129 158.714 592.129C158.714 592.129 155.63 609.439 150.588 620.158L153.005 620.2L146.963 634.632L150.047 634.674L144.255 647.604H147.297L140.463 661.452H143.672L134.796 678.262H140.005L129.421 697.699L136.088 697.574L122.713 721.224H158.672H194.631L181.339 697.574Z" fill="#4C4588"/>
<path d="M429.263 562.639L434.305 562.723L426.305 548.04H430.263L423.555 535.319H425.972L420.805 524.849H423.096L418.721 515.047L421.055 515.005L416.513 504.077L418.346 504.035C414.513 495.902 412.221 482.804 412.221 482.804C412.221 482.804 409.888 495.902 406.096 504.035L407.929 504.077L403.388 515.005L405.721 515.047L401.346 524.849H403.638L398.471 535.319H400.887L394.179 548.04H398.137L390.137 562.723L395.179 562.639L385.054 580.533H412.263H439.472L429.263 562.639Z" fill="#736C9D"/>
<path d="M660.313 593.505L665.354 593.588L657.354 578.906H661.313L654.604 566.184H657.021L651.854 555.715H654.146L649.771 545.913L652.104 545.871L647.562 534.943L649.396 534.901C645.562 526.767 643.271 513.67 643.271 513.67C643.271 513.67 640.937 526.767 637.145 534.901L638.979 534.943L634.437 545.871L636.77 545.913L632.395 555.715H634.687L629.52 566.184H631.937L625.228 578.906H629.187L621.187 593.588L626.228 593.505L616.103 611.399H643.312H670.521L660.313 593.505Z" fill="#736C9D"/>
<path d="M718.021 572.858L723.063 572.942L715.063 558.259H719.021L712.313 545.537H714.729L709.563 535.068H711.854L707.479 525.266L709.813 525.224L705.271 514.296L707.104 514.254C703.271 506.121 700.979 493.023 700.979 493.023C700.979 493.023 698.646 506.121 694.854 514.254L696.687 514.296L692.145 525.224L694.479 525.266L690.104 535.068H692.395L687.229 545.537H689.645L682.937 558.259H686.895L678.895 572.942L683.937 572.858L673.812 590.752H701.021H728.23L718.021 572.858Z" fill="#736C9D"/>
<path d="M98.7541 463.826L103.796 463.909L95.7957 449.227H99.7541L93.0456 436.505H95.4623L90.2955 426.036H92.5872L88.2121 416.234L90.5455 416.192L86.0037 405.264L87.8371 405.222C84.0036 397.088 81.7119 383.991 81.7119 383.991C81.7119 383.991 79.3785 397.088 75.5867 405.222L77.4201 405.264L72.8783 416.192L75.2117 416.234L70.8366 426.036H73.1283L67.9615 436.505H70.3782L63.6697 449.227H67.6282L59.6279 463.909L64.6697 463.826L54.5444 481.72H81.7536H108.963L98.7541 463.826Z" fill="#736C9D"/>
<path d="M833.109 219.274L835.817 219.316L831.526 211.433H833.651L830.026 204.592H831.317L828.567 198.961H829.817L827.442 193.706H828.692L826.234 187.824L827.234 187.783C825.192 183.403 823.942 176.396 823.942 176.396C823.942 176.396 822.692 183.445 820.65 187.783L821.65 187.824L819.192 193.706H820.442L818.067 198.961H819.317L816.567 204.592H817.859L814.234 211.433H816.359L812.067 219.316L814.775 219.274L809.358 228.868H823.984H838.609L833.109 219.274Z" fill="#D3B5BB"/>
<path d="M353.72 302.738L356.428 302.78L352.095 294.897H354.22L350.595 288.056H351.886L349.136 282.425H350.386L348.011 277.169H349.261L346.803 271.288L347.803 271.246C345.761 266.867 344.511 259.859 344.511 259.859C344.511 259.859 343.261 266.909 341.219 271.246L342.219 271.288L339.761 277.169H341.011L338.636 282.425H339.886L337.136 288.056H338.428L334.802 294.897H336.927L332.636 302.78L335.344 302.738L329.927 312.332H344.553H359.178L353.72 302.738Z" fill="#D3B5BB"/>
<path d="M1088.78 320.382L1092.45 320.465L1086.66 309.829H1089.53L1084.66 300.611H1086.41L1082.66 293.019H1084.32L1081.16 285.928L1082.82 285.887L1079.53 278.003L1080.87 277.962C1078.12 272.08 1076.41 262.612 1076.41 262.612C1076.41 262.612 1074.74 272.08 1071.95 277.962L1073.28 278.003L1069.99 285.887L1071.66 285.928L1068.49 293.019H1070.16L1066.41 300.611H1068.16L1063.28 309.829H1066.16L1060.37 320.465L1064.03 320.382L1056.7 333.354H1076.37H1096.03L1088.78 320.382Z" fill="#C3A8BA"/>
<path d="M1398.63 806.856C1399.04 797.638 1398.58 785 1393.87 778.576C1393.87 778.576 1396.42 790.506 1394.71 806.856H1389.83C1389.25 796.596 1389.17 781.747 1392.83 774.072C1392.83 774.072 1386.17 782.414 1385.04 806.856H1384.5C1385.04 800.391 1385.5 787.753 1381.25 781.997C1381.25 781.997 1383.42 792.341 1381.46 805.897C1380.33 799.14 1377.83 790.464 1372.42 786.126C1372.42 786.126 1376.42 794.719 1376.96 806.856H1367.29C1367.92 805.021 1368.75 803.311 1370 802.018C1370 802.018 1367.71 803.311 1365.96 806.856H1364.96C1365.5 800.391 1365.96 787.753 1361.71 781.997C1361.71 781.997 1363.17 788.837 1362.62 798.723C1362.25 795.428 1361.42 792.258 1359.75 790.005C1359.75 790.005 1360.71 799.39 1359.75 806.898H1356.62C1356.37 804.312 1356.33 801.434 1357.12 799.182C1357.12 799.182 1355.54 802.268 1354.83 806.898H1354.04C1354.67 797.93 1356.83 781.204 1364.46 773.78C1364.46 773.78 1352.04 782.33 1350.67 799.724C1350.67 799.724 1350.67 798.473 1350.46 796.429C1350.5 788.128 1351.21 779.369 1353.75 774.113C1353.75 774.113 1350.92 777.617 1348.62 786.835C1346.46 779.077 1342 769.567 1332.71 763.394C1332.71 763.394 1344 780.871 1344.46 806.898H1342.83C1342.17 804.979 1341.29 802.811 1340.12 800.683C1340.08 792.842 1338.58 784.041 1333.12 778.827C1333.12 778.827 1337.62 784.499 1337.62 797.054C1336.29 795.469 1334.66 794.051 1332.79 793.092C1333.04 792.007 1333.37 790.965 1333.79 790.005C1333.79 790.005 1330.87 794.927 1330.25 806.898H1329.37C1328.33 800.016 1325.87 790.714 1320.16 786.168C1320.16 786.168 1324.16 794.76 1324.71 806.898H1321C1321.62 805.063 1322.46 803.353 1323.71 802.06C1323.71 802.06 1321.41 803.353 1319.66 806.898H1318.66C1319.21 800.433 1319.66 787.795 1315.41 782.039C1315.41 782.039 1316.87 788.879 1316.33 798.765C1315.96 795.469 1315.12 792.299 1313.46 790.047C1313.46 790.047 1314.41 799.432 1313.46 806.94H1310.33C1310.08 804.354 1310.04 801.476 1310.83 799.223C1310.83 799.223 1309.25 802.31 1308.54 806.94H1291.83C1292.54 798.139 1292.08 785.542 1285.08 778.868C1285.08 778.868 1291.91 787.461 1288.75 806.94H1279.83C1277.04 783.707 1285.58 765.563 1285.58 765.563C1273.91 774.864 1272.25 798.973 1272 804.229C1272.75 780.161 1267.04 770.818 1267.04 770.818C1273.04 784.082 1265.29 804.521 1265.29 804.521C1256.12 770.318 1268 755.552 1268 755.552C1252.58 770.234 1260.37 806.022 1260.58 806.94H1254.2C1253.62 796.679 1253.54 781.83 1257.2 774.155C1257.2 774.155 1252.91 779.536 1250.62 794.26C1249.12 760.557 1239.95 749.17 1239.95 749.17C1247.08 763.936 1243.87 798.681 1242.95 806.94H1238.45C1238.58 806.273 1238.66 805.563 1238.75 804.854C1240.25 792.758 1235.41 783.29 1235.41 783.29C1237.91 790.756 1234.33 803.019 1234.33 803.019C1229.45 794.302 1231.83 770.818 1231.83 770.818C1229.58 773.863 1228.41 778.118 1227.91 782.581C1227.2 769.192 1229.2 759.973 1229.2 759.973C1221.29 770.735 1225.37 799.265 1225.37 799.265C1224.95 797.43 1224.41 795.887 1223.79 794.552C1223.45 789.755 1222.49 785.042 1220.37 782.122C1220.37 782.122 1222.54 792.466 1220.58 806.022C1219.45 799.265 1216.95 790.589 1211.54 786.251C1211.54 786.251 1215.54 794.844 1216.08 806.982H1206.41C1207.04 805.146 1207.87 803.436 1209.12 802.143C1209.12 802.143 1206.83 803.436 1205.08 806.982H1204.08C1204.62 800.516 1205.08 787.878 1200.83 782.122C1200.83 782.122 1202.29 788.963 1201.74 798.848C1201.37 795.553 1200.54 792.383 1198.87 790.13C1198.87 790.13 1199.83 799.515 1198.87 807.023H1195.87C1195.62 804.437 1195.58 801.559 1196.37 799.307C1196.37 799.307 1194.79 802.393 1194.08 807.023H1193.29C1193.91 798.055 1196.08 781.329 1203.7 773.905C1203.7 773.905 1191.29 782.456 1189.91 799.849C1189.91 799.849 1189.91 798.598 1189.7 796.554C1189.74 788.253 1190.45 779.494 1192.99 774.239C1192.99 774.239 1190.16 777.742 1187.87 786.96C1185.7 779.202 1181.24 769.692 1171.95 763.519C1171.95 763.519 1183.24 780.996 1183.7 807.023H1182.08C1181.41 805.105 1180.54 802.936 1179.37 800.808C1179.33 792.967 1177.83 784.166 1172.37 778.952C1172.37 778.952 1176.87 784.625 1176.87 797.18C1175.54 795.595 1173.91 794.176 1172.03 793.217C1172.28 792.133 1172.62 791.09 1173.03 790.13C1173.03 790.13 1170.12 795.052 1169.49 807.023H1168.62C1167.58 800.141 1165.12 790.839 1159.41 786.293C1159.41 786.293 1163.37 794.677 1163.95 806.648C1163.83 806.731 1163.66 806.94 1163.49 807.065H1158.37C1158.78 797.847 1158.33 785.209 1153.62 778.785C1153.62 778.785 1155.58 788.003 1154.87 801.351C1154.37 796.929 1153.2 792.717 1150.99 789.672C1150.99 789.672 1151.87 798.306 1151.45 807.065H1147.87C1147.99 806.398 1148.08 805.689 1148.16 804.98C1149.66 792.883 1144.83 783.415 1144.83 783.415C1147.33 790.881 1143.74 803.144 1143.74 803.144C1138.87 794.427 1141.24 770.943 1141.24 770.943C1138.99 773.988 1137.83 778.243 1137.33 782.706C1136.62 769.317 1138.62 760.099 1138.62 760.099C1135.33 764.603 1134.12 772.153 1133.83 779.494C1131.83 784.374 1129.37 793.092 1128.74 807.107H1126.74C1126.16 801.309 1126.37 794.969 1128.74 789.713C1128.74 789.713 1125.7 794.844 1124.33 807.107H1121.66C1119.83 798.765 1116.45 789.463 1110.16 784.458C1110.16 784.458 1114.45 793.551 1115.95 807.107H1111.57C1111.78 797.513 1110.62 786.21 1105.24 778.284C1107.07 770.485 1109.32 765.688 1109.32 765.688C1106.45 767.982 1104.16 771.194 1102.37 774.781C1102.24 774.656 1102.16 774.531 1102.03 774.447C1102.03 774.447 1102.16 774.614 1102.32 774.864C1096.91 785.834 1095.91 800.391 1095.74 804.354C1096.49 780.287 1090.78 770.943 1090.78 770.943C1091.37 772.278 1091.82 773.696 1092.2 775.156C1089.62 776.449 1087.41 778.368 1085.57 780.579C1085.57 775.573 1086.07 771.402 1086.82 767.982C1086.95 767.857 1087.03 767.732 1087.16 767.607C1087.16 767.607 1087.03 767.69 1086.82 767.857C1088.62 759.598 1091.7 755.719 1091.7 755.719C1087.74 759.515 1085.28 764.687 1083.91 770.359C1082.16 772.028 1079.87 774.447 1077.57 777.659C1081.45 751.423 1092.28 734.738 1092.28 734.738C1079.66 743.122 1073.57 756.094 1070.62 766.647C1067.49 754.134 1063.66 749.337 1063.66 749.337C1067.12 756.511 1068.12 768.441 1068.16 779.744C1067.87 782.539 1067.87 784.207 1067.87 784.207C1066.16 762.893 1052.36 751.339 1049.57 749.212C1049.57 749.254 1049.61 749.337 1049.61 749.379C1054.61 754.593 1057.82 762.81 1059.91 771.194C1057.99 767.69 1055.61 764.228 1052.7 761.058C1052.82 760.432 1052.86 760.099 1052.86 760.099C1052.7 760.307 1052.57 760.557 1052.41 760.766C1049.95 758.096 1047.16 755.635 1043.91 753.467C1043.91 753.467 1046.78 757.93 1050.11 765.813C1046.07 778.577 1049.07 799.39 1049.07 799.39C1048.61 797.346 1047.99 795.595 1047.28 794.135V807.107H1043.07C1043.2 806.439 1043.28 805.73 1043.36 805.021C1044.86 792.925 1040.03 783.457 1040.03 783.457C1042.53 790.923 1038.95 803.186 1038.95 803.186C1034.07 794.468 1036.45 770.985 1036.45 770.985C1028.86 781.246 1033.74 805.021 1033.74 805.021L1034.36 807.107H1028.53C1028.95 797.889 1028.49 785.25 1023.78 778.827C1023.78 778.827 1026.32 790.756 1024.61 807.107H1019.74C1019.16 796.846 1019.07 781.997 1022.74 774.322C1022.74 774.322 1016.07 782.664 1014.95 807.107H1014.41C1014.95 800.642 1015.41 788.003 1011.16 782.247C1011.16 782.247 1013.32 792.591 1011.36 806.147C1010.24 799.39 1007.74 790.714 1002.32 786.376C1002.32 786.376 1006.32 794.969 1006.86 807.107H997.196C997.821 805.271 998.655 803.561 999.905 802.268C999.905 802.268 997.613 803.561 995.863 807.107H994.863C995.405 800.642 995.863 788.003 991.613 782.247C991.613 782.247 993.071 789.088 992.53 798.973C992.155 795.678 991.321 792.508 989.654 790.256C989.654 790.256 990.613 799.64 989.654 807.148H986.529C986.279 804.562 986.238 801.684 987.029 799.432C987.029 799.432 985.446 802.519 984.738 807.148H983.946C984.571 798.181 986.738 781.455 994.363 774.03C994.363 774.03 981.946 782.581 980.571 799.974C980.571 799.974 980.571 798.723 980.363 796.679C980.404 788.379 981.113 779.619 983.654 774.364C983.654 774.364 980.821 777.867 978.529 787.085C976.362 779.327 971.904 769.817 962.612 763.644C962.612 763.644 973.904 781.121 974.362 807.148H972.737C972.071 805.23 971.196 803.061 970.029 800.934C969.987 793.092 968.487 784.291 963.029 779.077C963.029 779.077 967.529 784.75 967.529 797.305C966.195 795.72 964.57 794.301 962.695 793.342C962.945 792.258 963.279 791.215 963.695 790.256C963.695 790.256 960.779 795.177 960.154 807.148H959.279C958.237 800.266 955.779 790.965 950.07 786.418C950.07 786.418 954.07 795.011 954.612 807.148H950.903C951.528 805.313 952.362 803.603 953.612 802.31C953.612 802.31 951.32 803.603 949.57 807.148H948.57C949.112 800.683 949.57 788.045 945.32 782.289C945.32 782.289 946.778 789.129 946.237 799.015C945.862 795.72 945.028 792.55 943.361 790.297C943.361 790.297 944.32 799.682 943.361 807.19H940.236C939.986 804.604 939.945 801.726 940.736 799.474C940.736 799.474 939.153 802.56 938.445 807.19H921.736C922.444 798.389 921.986 785.792 914.986 779.119C914.986 779.119 921.819 787.711 918.652 807.19H909.735C906.944 783.957 915.486 765.813 915.486 765.813C903.819 775.114 902.152 799.223 901.902 804.479C902.652 780.412 896.943 771.069 896.943 771.069C902.944 784.333 895.193 804.771 895.193 804.771C886.026 770.568 897.902 755.802 897.902 755.802C882.485 770.485 890.277 806.273 890.485 807.19H884.11C883.526 796.929 883.443 782.08 887.11 774.405C887.11 774.405 882.818 779.786 880.526 794.51C879.026 760.808 869.859 749.421 869.859 749.421C876.984 764.186 873.776 798.931 872.859 807.19H868.359C868.484 806.523 868.568 805.814 868.651 805.105C870.151 793.008 865.317 783.54 865.317 783.54C867.818 791.006 864.234 803.269 864.234 803.269C859.359 794.552 861.734 771.069 861.734 771.069C859.484 774.113 858.317 778.368 857.817 782.831C857.109 769.442 859.109 760.224 859.109 760.224C851.192 770.985 855.276 799.515 855.276 799.515C854.859 797.68 854.317 796.137 853.692 794.802C853.359 790.005 852.4 785.292 850.275 782.372C850.275 782.372 852.442 792.716 850.484 806.273C849.359 799.515 846.859 790.839 841.442 786.502C841.442 786.502 845.442 795.094 845.984 807.232H836.317C836.942 805.397 837.775 803.686 839.025 802.393C839.025 802.393 836.733 803.686 834.983 807.232H833.983C834.525 800.767 834.983 788.128 830.733 782.372C830.733 782.372 832.191 789.213 831.65 799.098C831.275 795.803 830.441 792.633 828.775 790.381C828.775 790.381 829.733 799.766 828.775 807.274H825.65C825.4 804.687 825.358 801.809 826.15 799.557C826.15 799.557 824.566 802.644 823.858 807.274H823.066C823.691 798.306 825.858 781.58 833.483 774.155C833.483 774.155 821.066 782.706 819.691 800.099C819.691 800.099 819.691 798.848 819.483 796.804C819.524 788.504 820.233 779.744 822.775 774.489C822.775 774.489 819.941 777.993 817.649 787.211C815.483 779.452 811.024 769.942 801.732 763.769C801.732 763.769 813.024 781.246 813.483 807.274H811.858C811.191 805.355 810.316 803.186 809.149 801.059C809.107 793.217 807.607 784.416 802.149 779.202C802.149 779.202 806.649 784.875 806.649 797.43C805.316 795.845 803.691 794.427 801.816 793.467C802.066 792.383 802.399 791.34 802.816 790.381C802.816 790.381 799.899 795.303 799.274 807.274H798.399C797.357 800.391 794.899 791.09 789.19 786.543C789.19 786.543 793.149 794.927 793.732 806.898C793.607 806.982 793.44 807.19 793.274 807.315H788.065C788.482 798.097 788.024 785.459 783.315 779.035C783.315 779.035 785.273 788.253 784.565 801.601C784.065 797.18 782.898 792.967 780.648 789.922C780.648 789.922 781.523 798.556 781.107 807.315H776.273C776.357 805.563 776.565 803.895 777.065 802.393C777.065 802.393 776.148 804.229 775.19 807.315H773.356C774.69 794.635 778.148 776.533 787.065 767.815C787.065 767.815 770.148 779.452 768.273 803.144C768.273 803.144 768.273 801.434 767.981 798.639C768.023 787.336 769.023 775.448 772.481 768.274C772.481 768.274 768.648 773.071 765.523 785.584C764.106 780.495 761.939 774.864 758.689 769.442C759.523 767.148 760.106 765.896 760.106 765.896C759.314 766.564 758.523 767.273 757.814 768.065C754.397 762.726 749.856 757.679 743.814 753.675C743.814 753.675 748.856 761.433 753.272 774.697C751.939 777.283 750.897 780.12 750.022 782.956C748.647 779.828 746.814 776.991 744.397 774.697C744.397 774.697 747.314 778.368 749.147 786.251C748.231 789.838 747.647 793.342 747.272 796.345C747.022 796.137 746.772 795.928 746.522 795.72C745.856 778.201 741.605 771.194 741.605 771.194C742.189 772.528 742.647 773.947 743.022 775.406C740.439 776.699 738.23 778.618 736.397 780.829C736.397 763.644 742.564 755.969 742.564 755.969C735.105 763.06 733.105 775.114 733.022 785.751C732.355 786.96 731.73 788.17 731.188 789.338C730.105 787.795 728.897 786.418 727.563 785.25C730.272 754.76 743.147 734.947 743.147 734.947C730.522 743.331 724.438 756.303 721.48 766.856C718.355 754.342 714.521 749.546 714.521 749.546C717.98 756.72 718.98 768.649 719.021 779.953C718.73 782.748 718.73 784.416 718.73 784.416C717.021 763.102 703.229 751.548 700.438 749.421C700.438 749.462 700.479 749.546 700.479 749.587C712.73 762.309 714.646 798.389 714.938 807.274H713.021C713.146 806.606 713.23 805.897 713.313 805.188C714.813 793.092 709.979 783.623 709.979 783.623C712.48 791.09 708.896 803.353 708.896 803.353C704.021 794.635 706.396 771.152 706.396 771.152C704.146 774.197 702.979 778.451 702.479 782.914C701.771 769.525 703.771 760.307 703.771 760.307C698.521 767.44 698.562 782.289 699.188 791.549C698.521 786.668 697.271 782.122 695.021 779.035C695.021 779.035 697.562 790.965 695.854 807.315H690.979C690.396 797.054 690.312 782.205 693.979 774.531C693.979 774.531 687.312 782.873 686.187 807.315H685.645C686.187 800.85 686.646 788.212 682.395 782.456C682.395 782.456 684.562 792.8 682.604 806.356C681.479 799.599 678.979 790.923 673.562 786.585C673.562 786.585 677.562 795.177 678.104 807.315H668.437C669.062 805.48 669.895 803.77 671.145 802.477C671.145 802.477 668.853 803.77 667.103 807.315H666.103C666.645 800.85 667.103 788.212 662.853 782.456C662.853 782.456 664.312 789.296 663.77 799.182C663.395 795.887 662.561 792.716 660.895 790.464C660.895 790.464 661.853 799.849 660.895 807.357H657.77C657.52 804.771 657.478 801.893 658.27 799.641C658.27 799.641 656.686 802.727 655.978 807.357H655.186C655.811 798.389 657.978 781.663 665.603 774.239C665.603 774.239 653.186 782.789 651.811 800.183C651.811 800.183 651.811 798.931 651.603 796.888C651.644 788.587 652.353 779.828 654.895 774.572C654.895 774.572 652.061 778.076 649.769 787.294C647.603 779.536 643.144 770.026 633.852 763.853C633.852 763.853 645.144 781.329 645.603 807.357H643.978C643.311 805.438 642.436 803.269 641.269 801.142C641.227 793.3 639.727 784.499 634.269 779.286C634.269 779.286 638.769 784.958 638.769 797.513C637.436 795.928 635.811 794.51 633.936 793.551C634.186 792.466 634.519 791.423 634.936 790.464C634.936 790.464 632.019 795.386 631.394 807.357H630.519C629.477 800.475 627.019 791.173 621.31 786.627C621.31 786.627 625.31 795.219 625.852 807.357H622.144C622.769 805.522 623.602 803.812 624.852 802.519C624.852 802.519 622.56 803.812 620.81 807.357H619.81C620.352 800.892 620.81 788.253 616.56 782.497C616.56 782.497 618.018 789.338 617.477 799.223C617.102 795.928 616.268 792.758 614.602 790.506C614.602 790.506 615.56 799.891 614.602 807.399H611.477C611.227 804.813 611.185 801.935 611.977 799.682C611.977 799.682 610.393 802.769 609.685 807.399H592.976C593.684 798.598 593.226 786.001 586.226 779.327C586.226 779.327 593.059 787.92 589.893 807.399H580.976C578.184 784.166 586.726 766.021 586.726 766.021C575.059 775.323 573.392 799.432 573.142 804.688C573.892 780.62 568.184 771.277 568.184 771.277C574.184 784.541 566.434 804.98 566.434 804.98C557.267 770.777 569.142 756.011 569.142 756.011C553.725 770.693 561.517 806.481 561.725 807.399H555.35C554.767 797.138 554.683 782.289 558.35 774.614C558.35 774.614 554.058 779.995 551.766 794.719C550.266 761.016 541.099 749.629 541.099 749.629C548.225 764.395 545.016 799.14 544.1 807.399H539.599C539.724 806.731 539.808 806.022 539.891 805.313C541.391 793.217 536.558 783.749 536.558 783.749C539.058 791.215 535.474 803.478 535.474 803.478C530.599 794.76 532.974 771.277 532.974 771.277C530.724 774.322 529.557 778.576 529.057 783.04C528.349 769.65 530.349 760.432 530.349 760.432C522.432 771.194 526.516 799.724 526.516 799.724C526.099 797.889 525.557 796.345 524.932 795.011C524.599 790.214 523.641 785.5 521.516 782.581C521.516 782.581 523.682 792.925 521.724 806.481C520.599 799.724 518.099 791.048 512.682 786.71C512.682 786.71 516.682 795.303 517.224 807.44H507.557C508.182 805.605 509.015 803.895 510.265 802.602C510.265 802.602 507.973 803.895 506.223 807.44H505.223C505.765 800.975 506.223 788.337 501.973 782.581C501.973 782.581 503.432 789.421 502.89 799.307C502.515 796.012 501.682 792.842 500.015 790.589C500.015 790.589 500.973 799.974 500.015 807.482H496.89C496.64 804.896 496.598 802.018 497.39 799.766C497.39 799.766 495.806 802.852 495.098 807.482H494.306C494.931 798.514 497.098 781.788 504.723 774.364C504.723 774.364 492.306 782.914 490.931 800.308C490.931 800.308 490.931 799.057 490.723 797.013C490.765 788.712 491.473 779.953 494.015 774.697C494.015 774.697 491.181 778.201 488.89 787.419C486.723 779.661 482.264 770.151 472.972 763.978C472.972 763.978 484.264 781.455 484.723 807.482H483.098C482.431 805.563 481.556 803.395 480.389 801.267C480.348 793.426 478.848 784.625 473.389 779.411C473.389 779.411 477.889 785.083 477.889 797.638C476.556 796.053 474.931 794.635 473.056 793.676C473.306 792.591 473.639 791.549 474.056 790.589C474.056 790.589 471.139 795.511 470.514 807.482H469.639C468.597 800.6 466.139 791.298 460.43 786.752C460.43 786.752 464.389 795.136 464.972 807.107C464.847 807.19 464.681 807.399 464.514 807.524H459.305C459.722 798.306 459.264 785.667 454.555 779.244C454.555 779.244 456.514 788.462 455.805 801.809C455.305 797.388 454.139 793.175 451.888 790.13C451.888 790.13 452.763 798.765 452.347 807.524H448.763C448.888 806.857 448.972 806.147 449.055 805.438C450.555 793.342 445.722 783.874 445.722 783.874C448.222 791.34 444.638 803.603 444.638 803.603C439.763 794.885 442.138 771.402 442.138 771.402C439.888 774.447 438.721 778.702 438.221 783.165C437.513 769.775 439.513 760.557 439.513 760.557C436.221 765.062 435.013 772.612 434.721 779.953C432.721 784.833 430.263 793.551 429.638 807.566H427.638C427.054 801.768 427.263 795.428 429.638 790.172C429.638 790.172 426.596 795.303 425.221 807.566H422.554C420.721 799.223 417.346 789.922 411.054 784.917C411.054 784.917 415.346 794.01 416.846 807.566H412.471C412.679 797.972 411.512 786.668 406.137 778.743C407.971 770.943 410.221 766.147 410.221 766.147C407.345 768.441 405.054 771.652 403.262 775.24C403.137 775.114 403.054 774.989 402.929 774.906C402.929 774.906 403.054 775.073 403.22 775.323C397.804 786.293 396.804 800.85 396.637 804.813C397.387 780.745 391.678 771.402 391.678 771.402C392.262 772.737 392.72 774.155 393.095 775.615C390.512 776.908 388.303 778.827 386.47 781.037C386.47 776.032 386.97 771.861 387.72 768.441C387.845 768.316 387.928 768.19 388.053 768.065C388.053 768.065 387.928 768.149 387.72 768.316C389.512 760.057 392.595 756.178 392.595 756.178C388.637 759.973 386.178 765.146 384.803 770.818C383.053 772.487 380.761 774.906 378.47 778.118C382.345 751.882 393.178 735.197 393.178 735.197C380.553 743.581 374.47 756.553 371.511 767.106C368.386 754.593 364.553 749.796 364.553 749.796C368.011 756.97 369.011 768.9 369.053 780.203C368.761 782.998 368.761 784.666 368.761 784.666C367.053 763.352 353.261 751.798 350.469 749.671C350.469 749.713 350.51 749.796 350.51 749.838C355.511 755.052 358.719 763.269 360.802 771.652C358.886 768.149 356.511 764.687 353.594 761.517C353.719 760.891 353.761 760.557 353.761 760.557C353.594 760.766 353.469 761.016 353.302 761.225C350.844 758.555 348.052 756.094 344.802 753.925C344.802 753.925 347.677 758.388 351.01 766.272C346.969 779.035 349.969 799.849 349.969 799.849C349.51 797.805 348.885 796.053 348.177 794.593V807.566H343.969C344.094 806.898 344.177 806.189 344.26 805.48C345.76 793.384 340.927 783.915 340.927 783.915C343.427 791.382 339.843 803.645 339.843 803.645C334.968 794.927 337.343 771.444 337.343 771.444C329.76 781.705 334.635 805.48 334.635 805.48L335.26 807.566H329.426C329.843 798.347 329.385 785.709 324.676 779.286C324.676 779.286 327.218 791.215 325.51 807.566H320.635C320.051 797.305 319.968 782.456 323.635 774.781C323.635 774.781 316.968 783.123 315.843 807.566H315.301C315.843 801.1 316.301 788.462 312.051 782.706C312.051 782.706 314.218 793.05 312.259 806.606C311.134 799.849 308.634 791.173 303.217 786.835C303.217 786.835 307.217 795.428 307.759 807.566H298.092C298.717 805.73 299.551 804.02 300.801 802.727C300.801 802.727 298.509 804.02 296.759 807.566H295.759C296.301 801.1 296.759 788.462 292.509 782.706C292.509 782.706 293.967 789.546 293.425 799.432C293.05 796.137 292.217 792.967 290.55 790.714C290.55 790.714 291.509 800.099 290.55 807.607H287.425C287.175 805.021 287.134 802.143 287.925 799.891C287.925 799.891 286.342 802.977 285.634 807.607H284.842C285.467 798.639 287.634 781.913 295.259 774.489C295.259 774.489 282.842 783.04 281.467 800.433C281.467 800.433 281.467 799.182 281.258 797.138C281.3 788.837 282.008 780.078 284.55 774.822C284.55 774.822 281.717 778.326 279.425 787.544C277.258 779.786 272.8 770.276 263.508 764.103C263.508 764.103 274.8 781.58 275.258 807.607H273.633C272.966 805.689 272.091 803.52 270.925 801.392C270.883 793.551 269.383 784.75 263.925 779.536C263.925 779.536 268.425 785.208 268.425 797.763C267.091 796.178 265.466 794.76 263.591 793.801C263.841 792.716 264.175 791.674 264.591 790.714C264.591 790.714 261.674 795.636 261.049 807.607H260.174C259.133 800.725 256.674 791.423 250.966 786.877C250.966 786.877 254.966 795.469 255.508 807.607H251.799C252.424 805.772 253.258 804.062 254.508 802.769C254.508 802.769 252.216 804.062 250.466 807.607H249.466C250.007 801.142 250.466 788.504 246.216 782.748C246.216 782.748 247.674 789.588 247.132 799.474C246.757 796.178 245.924 793.008 244.257 790.756C244.257 790.756 245.216 800.141 244.257 807.649H241.132C240.882 805.063 240.841 802.185 241.632 799.932C241.632 799.932 240.049 803.019 239.34 807.649H222.632C223.34 798.848 222.882 786.251 215.881 779.578C215.881 779.578 222.715 788.17 219.548 807.649H210.631C207.84 784.416 216.381 766.272 216.381 766.272C204.714 775.573 203.048 799.682 202.798 804.938C203.548 780.871 197.839 771.527 197.839 771.527C203.839 784.791 196.089 805.23 196.089 805.23C186.922 771.027 198.798 756.261 198.798 756.261C183.38 770.943 191.172 806.731 191.381 807.649H185.006C184.422 797.388 184.339 782.539 188.006 774.864C188.006 774.864 183.714 780.245 181.422 794.969C179.922 761.266 170.755 749.879 170.755 749.879C177.88 764.645 174.672 799.39 173.755 807.649H170.005C170.13 806.982 170.213 806.273 170.297 805.563C171.797 793.467 166.963 783.999 166.963 783.999C169.463 791.465 165.88 803.728 165.88 803.728C161.005 795.011 163.38 771.527 163.38 771.527C161.13 774.572 159.963 778.827 159.463 783.29C158.755 769.901 160.755 760.682 160.755 760.682C152.838 771.444 156.921 799.974 156.921 799.974C156.505 798.139 155.963 796.596 155.338 795.261C155.005 790.464 154.046 785.751 151.921 782.831C151.921 782.831 154.088 793.175 152.13 806.731C151.005 799.974 148.504 791.298 143.088 786.96C143.088 786.96 147.088 795.553 147.629 807.691H137.962C138.587 805.855 139.421 804.145 140.671 802.852C140.671 802.852 138.379 804.145 136.629 807.691H135.629C136.171 801.226 136.629 788.587 132.379 782.831C132.379 782.831 133.837 789.672 133.296 799.557C132.921 796.262 132.087 793.092 130.421 790.84C130.421 790.84 131.379 800.224 130.421 807.732H127.295C127.045 805.146 127.004 802.268 127.795 800.016C127.795 800.016 126.212 803.102 125.504 807.732H124.712C125.337 798.765 127.504 782.039 135.129 774.614C135.129 774.614 122.712 783.165 121.337 800.558C121.337 800.558 121.337 799.307 121.129 797.263C121.17 788.962 121.879 780.203 124.42 774.948C124.42 774.948 121.587 778.451 119.295 787.669C117.128 779.911 112.67 770.401 103.378 764.228C103.378 764.228 114.67 781.705 115.128 807.732H113.503C112.837 805.814 111.962 803.645 110.795 801.517C110.753 793.676 109.253 784.875 103.795 779.661C103.795 779.661 108.295 785.334 108.295 797.889C106.962 796.304 105.336 794.885 103.461 793.926C103.711 792.842 104.045 791.799 104.461 790.84C104.461 790.84 101.545 795.761 100.92 807.732H100.045C99.003 800.85 96.5445 791.549 90.836 787.002C90.836 787.002 94.7945 795.386 95.3778 807.357C95.2528 807.44 95.0862 807.649 94.9195 807.774H89.711C90.1277 798.556 89.6693 785.918 84.9609 779.494C84.9609 779.494 86.9193 788.712 86.2109 802.06C85.7109 797.638 84.5442 793.426 82.2941 790.381C82.2941 790.381 83.1692 799.015 82.7525 807.774H77.919C78.0023 806.022 78.2107 804.354 78.7107 802.852C78.7107 802.852 77.794 804.688 76.8356 807.774H75.0022C76.3356 795.094 79.7941 776.991 88.711 768.274C88.711 768.274 71.7938 779.911 69.9188 803.603C69.9188 803.603 69.9187 801.893 69.6271 799.098C69.6687 787.795 70.6688 775.907 74.1272 768.733C74.1272 768.733 70.2938 773.529 67.1687 786.043C65.752 780.954 63.5852 775.323 60.3351 769.901C61.1685 767.607 61.7518 766.355 61.7518 766.355C60.9602 767.023 60.1685 767.732 59.4601 768.524C56.0433 763.185 51.5015 758.138 45.4597 754.134C45.4597 754.134 50.5015 761.892 54.9183 775.156C53.5849 777.742 52.5432 780.579 51.6682 783.415C50.2932 780.287 48.4598 777.45 46.043 775.156C46.043 775.156 48.9598 778.827 50.7932 786.71C49.8765 790.297 49.2931 793.801 48.9181 796.804C48.6681 796.596 48.4181 796.387 48.1681 796.179C47.5014 778.66 43.2513 771.652 43.2513 771.652C43.8346 772.987 44.293 774.405 44.668 775.865C42.0846 777.158 39.8762 779.077 38.0428 781.288C38.0428 764.103 44.2097 756.428 44.2097 756.428C36.7511 763.519 34.751 775.573 34.6677 786.21C34.001 787.419 33.376 788.629 32.8343 789.797C31.7509 788.253 30.5426 786.877 29.2092 785.709C31.9176 755.218 44.793 735.406 44.793 735.406C32.1676 743.79 26.0841 756.762 23.1257 767.315C20.0006 754.801 16.1671 750.004 16.1671 750.004C19.6256 757.179 20.6256 769.108 20.6673 780.412C20.3756 783.206 20.3756 784.875 20.3756 784.875C18.6672 763.561 4.87515 752.007 2.0834 749.879C2.0834 749.921 2.12506 750.005 2.12506 750.046C14.3754 762.768 16.2922 798.848 16.5838 807.732H14.8754C15.0004 807.065 15.0838 806.356 15.1671 805.647C16.6672 793.551 11.8337 784.082 11.8337 784.082C14.3338 791.549 10.7503 803.812 10.7503 803.812C5.87517 795.094 8.25025 771.611 8.25025 771.611C6.00018 774.656 4.83348 778.91 4.33346 783.373C3.62511 769.984 5.62517 760.766 5.62517 760.766C-2.29173 771.527 1.79172 800.058 1.79172 800.058C1.33337 798.014 0.708354 796.262 0 794.802V807.774V810.277V812.404H1400.04V807.774H1398.63V806.856ZM1133.78 785.375C1133.95 793.008 1134.83 799.14 1134.83 799.14C1134.41 797.305 1133.87 795.761 1133.24 794.385C1133.33 791.34 1133.49 788.253 1133.78 785.375ZM435.305 785.375C435.471 793.008 436.346 799.14 436.346 799.14C435.93 797.305 435.388 795.761 434.763 794.385C434.805 791.34 434.971 788.253 435.305 785.375ZM1332.87 793.134C1333.37 793.843 1335.91 797.638 1337.37 803.019C1337.25 804.229 1337.08 805.522 1336.87 806.815H1333.08C1332.29 802.727 1331.83 797.68 1332.87 793.134ZM1172.08 793.134C1172.58 793.843 1175.12 797.638 1176.58 803.019C1176.45 804.229 1176.29 805.522 1176.08 806.815H1172.28C1171.49 802.727 1171.03 797.68 1172.08 793.134ZM1104.95 779.619C1106.99 784.75 1109.16 793.676 1107.82 806.856H1103.62C1102.37 796.345 1103.41 786.835 1104.95 779.619ZM1092.28 775.073C1095.28 788.045 1089.07 804.437 1089.07 804.437C1087.95 800.308 1087.16 796.429 1086.62 792.842C1088.57 783.915 1091.74 776.366 1092.28 775.073ZM1076.45 789.505C1078.03 783.081 1080.32 776.825 1083.53 771.903C1082.62 776.324 1082.24 780.912 1082.2 785.292C1077.74 793.134 1076.37 801.851 1076.37 801.851C1076.2 797.597 1076.24 793.467 1076.45 789.505ZM1051.82 769.525C1055.32 778.785 1058.91 791.59 1059.86 806.856H1055.95C1051.45 792.007 1051.24 778.243 1051.82 769.525ZM962.904 793.134C963.404 793.843 965.945 797.638 967.404 803.019C967.279 804.229 967.112 805.522 966.904 806.815H963.112C962.32 802.727 961.82 797.68 962.904 793.134ZM802.107 793.134C802.607 793.843 805.149 797.638 806.607 803.019C806.482 804.229 806.316 805.522 806.107 806.815H802.316C801.524 802.727 801.024 797.68 802.107 793.134ZM746.981 798.181C747.106 798.389 747.231 798.639 747.314 798.89C747.064 801.226 746.981 803.061 746.939 804.145C747.022 802.018 747.022 800.058 746.981 798.181ZM743.397 774.989C746.439 787.961 740.23 804.437 740.23 804.437C738.647 798.598 737.73 793.342 737.23 788.587C739.23 781.163 742.772 775.907 743.397 774.989ZM727.855 785.626C728.397 787.002 729.272 789.296 730.147 792.341C728.23 797.597 727.563 801.851 727.563 801.851C727.272 796.179 727.438 790.756 727.855 785.626ZM754.481 804.27C754.439 803.728 754.397 803.186 754.356 802.685C754.314 801.643 754.272 800.642 754.231 799.599C754.064 792.675 754.773 786.376 755.814 781.121C757.856 788.545 759.439 797.263 760.064 806.898H755.773C755.314 805.981 754.981 805.105 754.481 804.27ZM700.313 799.14C700.271 798.931 700.188 798.806 700.146 798.598C700.146 798.306 700.146 798.055 700.146 797.763C700.229 798.639 700.313 799.14 700.313 799.14ZM634.394 793.134C634.894 793.843 637.436 797.638 638.894 803.019C638.769 804.229 638.602 805.522 638.394 806.815H634.602C633.811 802.727 633.311 797.68 634.394 793.134ZM473.597 793.134C474.098 793.843 476.639 797.638 478.098 803.019C477.973 804.229 477.806 805.522 477.598 806.815H473.806C473.014 802.727 472.514 797.68 473.597 793.134ZM406.429 779.619C408.471 784.75 410.637 793.676 409.304 806.856H405.095C403.887 796.345 404.887 786.835 406.429 779.619ZM393.762 775.073C396.762 788.045 390.553 804.437 390.553 804.437C389.428 800.308 388.637 796.429 388.095 792.842C390.053 783.915 393.22 776.366 393.762 775.073ZM377.928 789.505C379.511 783.081 381.803 776.825 385.012 771.903C384.095 776.324 383.72 780.912 383.678 785.292C379.22 793.134 377.845 801.851 377.845 801.851C377.678 797.597 377.72 793.467 377.928 789.505ZM353.302 769.525C356.802 778.785 360.386 791.59 361.344 806.856H357.427C352.969 792.007 352.719 778.243 353.302 769.525ZM264.383 793.134C264.883 793.843 267.425 797.638 268.883 803.019C268.758 804.229 268.591 805.522 268.383 806.815H264.591C263.8 802.727 263.341 797.68 264.383 793.134ZM103.586 793.134C104.086 793.843 106.628 797.638 108.087 803.019C107.962 804.229 107.795 805.522 107.587 806.815H103.795C103.003 802.727 102.545 797.68 103.586 793.134ZM48.4598 798.181C48.5848 798.389 48.7098 798.639 48.7931 798.89C48.5431 801.226 48.4598 803.061 48.4181 804.145C48.5014 802.018 48.5014 800.058 48.4598 798.181ZM44.8763 774.989C47.9181 787.961 41.7096 804.437 41.7096 804.437C40.1262 798.598 39.2095 793.342 38.7095 788.587C40.7095 781.163 44.2513 775.907 44.8763 774.989ZM29.3342 785.626C29.8759 787.002 30.7509 789.296 31.6259 792.341C29.7092 797.597 29.0425 801.851 29.0425 801.851C28.7509 796.179 28.9175 790.756 29.3342 785.626ZM56.0017 804.27C55.96 803.728 55.9183 803.186 55.8767 802.685C55.835 801.643 55.7933 800.642 55.7517 799.599C55.585 792.675 56.2933 786.376 57.335 781.121C59.3768 788.545 60.9602 797.263 61.5852 806.898H57.2934C56.835 805.981 56.46 805.105 56.0017 804.27Z" fill="#A38DB0"/>
</g>
<defs>
<linearGradient id="paint0_linear" x1="699.927" y1="169.523" x2="699.927" y2="558.406" gradientUnits="userSpaceOnUse">
<stop stop-color="white"/>
<stop offset="0.00809998" stop-color="white" stop-opacity="0.9919"/>
<stop offset="1" stop-color="white" stop-opacity="0"/>
</linearGradient>
<linearGradient id="paint1_linear" x1="701.329" y1="279.188" x2="701.329" y2="538.996" gradientUnits="userSpaceOnUse">
<stop stop-color="white"/>
<stop offset="0.00809998" stop-color="white" stop-opacity="0.9919"/>
<stop offset="1" stop-color="white" stop-opacity="0"/>
</linearGradient>
<linearGradient id="paint2_linear" x1="0.523385" y1="896.279" x2="1400.04" y2="896.279" gradientUnits="userSpaceOnUse">
<stop stop-color="#EBD1C6"/>
<stop offset="1" stop-color="#E9BCB0"/>
</linearGradient>
<linearGradient id="paint3_linear" x1="1.01014" y1="892.764" x2="1399.87" y2="892.764" gradientUnits="userSpaceOnUse">
<stop stop-color="#E9BCB0"/>
<stop offset="0.4578" stop-color="#EAC4B8"/>
<stop offset="1" stop-color="#EBD1C6"/>
</linearGradient>
<clipPath id="clip0">
<rect width="1400" height="981" fill="white"/>
</clipPath>
</defs>
</svg>
